<?xml version="1.0" encoding="utf-8"?>
<!-- Generator: Adobe Illustrator 16.0.0, SVG Export Plug-In . SVG Version: 6.00 Build 0)  -->
<!DOCTYPE svg PUBLIC "-//W3C//DTD SVG 1.1//EN" "http://www.w3.org/Graphics/SVG/1.1/DTD/svg11.dtd">
<svg version="1.1" id="Layer_1" xmlns="http://www.w3.org/2000/svg" xmlns:xlink="http://www.w3.org/1999/xlink" x="0px" y="0px"
	 width="800px" height="800px" viewBox="0 0 800 800" enable-background="new 0 0 800 800" xml:space="preserve">
<g>
	<g>
		<linearGradient id="SVGID_1_" gradientUnits="userSpaceOnUse" x1="154.9082" y1="627.8799" x2="174.8506" y2="627.8799">
			<stop  offset="0" style="stop-color:#F15A24"/>
			<stop  offset="1" style="stop-color:#990000"/>
		</linearGradient>
		<path fill="url(#SVGID_1_)" d="M165.441,634.107c1.452-3.352,4.805-12.084,5.355-13.885c0.127-0.375,0.224-0.725,0.224-0.951
			c0-0.201-0.075-0.451-0.323-0.574c-0.302-0.102-0.676-0.102-0.95-0.102c-0.15,0-0.277-0.023-0.277-0.15
			c0-0.15,0.151-0.197,0.552-0.197c0.999,0,2.15,0.07,2.453,0.07c0.147,0,1.224-0.07,1.951-0.07c0.275,0,0.425,0.047,0.425,0.172
			c0,0.127-0.101,0.176-0.302,0.176c-0.173,0-0.723,0-1.2,0.301c-0.325,0.223-0.701,0.65-1.375,2.352
			c-0.277,0.699-1.527,3.701-2.804,6.781c-1.523,3.652-2.65,6.354-3.228,7.58c-0.701,1.5-0.801,1.902-1.052,1.902
			c-0.3,0-0.424-0.35-0.899-1.551l-6.131-15.338c-0.551-1.402-0.927-1.678-1.801-1.926c-0.377-0.102-0.802-0.102-0.951-0.102
			s-0.2-0.076-0.2-0.176c0-0.15,0.25-0.172,0.65-0.172c1.202,0,2.627,0.07,2.927,0.07c0.251,0,1.377-0.07,2.326-0.07
			c0.452,0,0.679,0.047,0.679,0.172c0,0.127-0.076,0.176-0.251,0.176c-0.276,0-0.727,0.025-0.95,0.123
			c-0.276,0.129-0.327,0.328-0.327,0.502c0,0.326,0.301,1.104,0.677,2.076L165.441,634.107z"/>
		<linearGradient id="SVGID_2_" gradientUnits="userSpaceOnUse" x1="181.4131" y1="627.6406" x2="192.501" y2="627.6406">
			<stop  offset="0" style="stop-color:#F15A24"/>
			<stop  offset="1" style="stop-color:#990000"/>
		</linearGradient>
		<path fill="url(#SVGID_2_)" d="M183.591,625.502c0-3.902,0-4.602-0.049-5.402c-0.051-0.854-0.251-1.252-1.077-1.426
			c-0.198-0.053-0.625-0.078-0.85-0.078c-0.101,0-0.202-0.049-0.202-0.15c0-0.15,0.125-0.197,0.4-0.197c0.575,0,1.252,0,1.802,0.021
			l1.025,0.049c0.178,0,5.158,0,5.73-0.023c0.476-0.025,0.876-0.078,1.075-0.127c0.126-0.021,0.226-0.123,0.354-0.123
			c0.074,0,0.098,0.102,0.098,0.225c0,0.176-0.125,0.477-0.197,1.176c-0.028,0.25-0.077,1.354-0.128,1.654
			c-0.022,0.121-0.073,0.275-0.175,0.275c-0.15,0-0.198-0.127-0.198-0.324c0-0.176-0.025-0.604-0.151-0.902
			c-0.173-0.402-0.425-0.703-1.774-0.854c-0.43-0.049-3.155-0.074-3.43-0.074c-0.1,0-0.15,0.074-0.15,0.25v6.904
			c0,0.18,0.024,0.254,0.15,0.254c0.325,0,3.403,0,3.978-0.051c0.601-0.051,0.95-0.102,1.177-0.35
			c0.176-0.201,0.275-0.328,0.375-0.328c0.073,0,0.126,0.053,0.126,0.203c0,0.146-0.126,0.574-0.201,1.402
			c-0.051,0.5-0.099,1.426-0.099,1.596c0,0.203,0,0.48-0.177,0.48c-0.125,0-0.176-0.102-0.176-0.229c0-0.252,0-0.498-0.1-0.822
			c-0.099-0.352-0.325-0.779-1.302-0.877c-0.675-0.074-3.15-0.123-3.577-0.123c-0.124,0-0.175,0.07-0.175,0.172v2.203
			c0,0.85-0.026,3.754,0,4.277c0.075,1.727,0.451,2.053,2.902,2.053c0.651,0,1.751,0,2.402-0.275
			c0.651-0.277,0.95-0.773,1.127-1.803c0.05-0.273,0.099-0.375,0.224-0.375c0.152,0,0.152,0.203,0.152,0.375
			c0,0.201-0.203,1.904-0.326,2.428c-0.178,0.65-0.375,0.65-1.354,0.65c-1.874,0-3.251-0.051-4.228-0.074
			c-0.975-0.053-1.577-0.074-1.953-0.074c-0.049,0-0.476,0-0.999,0.021c-0.498,0-1.078,0.053-1.45,0.053
			c-0.274,0-0.402-0.053-0.402-0.199c0-0.076,0.051-0.15,0.201-0.15c0.226,0,0.527-0.053,0.752-0.102
			c0.499-0.102,0.624-0.648,0.727-1.377c0.122-1.049,0.122-3.027,0.122-5.428V625.502z"/>
		<linearGradient id="SVGID_3_" gradientUnits="userSpaceOnUse" x1="200.0371" y1="627.5283" x2="215.9004" y2="627.5283">
			<stop  offset="0" style="stop-color:#F15A24"/>
			<stop  offset="1" style="stop-color:#990000"/>
		</linearGradient>
		<path fill="url(#SVGID_3_)" d="M209.196,629.906c0,2.4,0,4.379,0.125,5.428c0.074,0.729,0.225,1.275,0.975,1.377
			c0.352,0.049,0.901,0.102,1.127,0.102c0.15,0,0.199,0.074,0.199,0.15c0,0.125-0.123,0.199-0.398,0.199
			c-1.377,0-2.953-0.074-3.079-0.074s-1.702,0.074-2.45,0.074c-0.273,0-0.401-0.053-0.401-0.199c0-0.076,0.051-0.15,0.2-0.15
			c0.227,0,0.524-0.053,0.75-0.102c0.502-0.102,0.625-0.648,0.726-1.377c0.126-1.049,0.126-3.027,0.126-5.428v-10.584l-3.703,0.051
			c-1.553,0.023-2.151,0.199-2.552,0.799c-0.274,0.426-0.353,0.602-0.427,0.777c-0.074,0.197-0.149,0.25-0.251,0.25
			c-0.074,0-0.125-0.074-0.125-0.227c0-0.248,0.502-2.4,0.552-2.604c0.051-0.152,0.149-0.475,0.251-0.475
			c0.175,0,0.425,0.252,1.101,0.305c0.724,0.07,1.676,0.119,1.975,0.119h9.383c0.803,0,1.38-0.049,1.778-0.119
			c0.374-0.053,0.601-0.127,0.7-0.127c0.124,0,0.124,0.145,0.124,0.297c0,0.75-0.073,2.479-0.073,2.756
			c0,0.225-0.075,0.322-0.177,0.322c-0.124,0-0.173-0.072-0.2-0.424l-0.024-0.277c-0.074-0.748-0.675-1.324-3.078-1.373
			l-3.151-0.051V629.906z"/>
		<linearGradient id="SVGID_4_" gradientUnits="userSpaceOnUse" x1="223.9922" y1="627.6406" x2="235.0762" y2="627.6406">
			<stop  offset="0" style="stop-color:#F15A24"/>
			<stop  offset="1" style="stop-color:#990000"/>
		</linearGradient>
		<path fill="url(#SVGID_4_)" d="M226.169,625.502c0-3.902,0-4.602-0.051-5.402c-0.049-0.854-0.25-1.252-1.074-1.426
			c-0.201-0.053-0.628-0.078-0.852-0.078c-0.102,0-0.2-0.049-0.2-0.15c0-0.15,0.125-0.197,0.399-0.197c0.575,0,1.251,0,1.803,0.021
			l1.027,0.049c0.174,0,5.152,0,5.729-0.023c0.475-0.025,0.876-0.078,1.074-0.127c0.127-0.021,0.228-0.123,0.352-0.123
			c0.075,0,0.102,0.102,0.102,0.225c0,0.176-0.126,0.477-0.202,1.176c-0.023,0.25-0.074,1.354-0.124,1.654
			c-0.025,0.121-0.076,0.275-0.176,0.275c-0.149,0-0.199-0.127-0.199-0.324c0-0.176-0.027-0.604-0.152-0.902
			c-0.172-0.402-0.425-0.703-1.775-0.854c-0.425-0.049-3.152-0.074-3.427-0.074c-0.1,0-0.151,0.074-0.151,0.25v6.904
			c0,0.18,0.025,0.254,0.151,0.254c0.323,0,3.404,0,3.978-0.051c0.6-0.051,0.951-0.102,1.176-0.35
			c0.174-0.201,0.274-0.328,0.376-0.328c0.073,0,0.124,0.053,0.124,0.203c0,0.146-0.124,0.574-0.199,1.402
			c-0.05,0.5-0.1,1.426-0.1,1.596c0,0.203,0,0.48-0.177,0.48c-0.124,0-0.175-0.102-0.175-0.229c0-0.252,0-0.498-0.1-0.822
			c-0.102-0.352-0.326-0.779-1.302-0.877c-0.677-0.074-3.152-0.123-3.578-0.123c-0.123,0-0.175,0.07-0.175,0.172v2.203
			c0,0.85-0.023,3.754,0,4.277c0.076,1.727,0.452,2.053,2.904,2.053c0.651,0,1.751,0,2.4-0.275c0.649-0.277,0.95-0.773,1.126-1.803
			c0.051-0.273,0.101-0.375,0.225-0.375c0.15,0,0.15,0.203,0.15,0.375c0,0.201-0.198,1.904-0.324,2.428
			c-0.176,0.65-0.376,0.65-1.351,0.65c-1.878,0-3.256-0.051-4.23-0.074c-0.975-0.053-1.575-0.074-1.949-0.074
			c-0.051,0-0.478,0-1.003,0.021c-0.499,0-1.073,0.053-1.449,0.053c-0.276,0-0.403-0.053-0.403-0.199c0-0.076,0.05-0.15,0.2-0.15
			c0.226,0,0.528-0.053,0.752-0.102c0.502-0.102,0.625-0.648,0.727-1.377c0.124-1.049,0.124-3.027,0.124-5.428V625.502z"/>
		<linearGradient id="SVGID_5_" gradientUnits="userSpaceOnUse" x1="244.2656" y1="627.7051" x2="263.1826" y2="627.7051">
			<stop  offset="0" style="stop-color:#F15A24"/>
			<stop  offset="1" style="stop-color:#990000"/>
		</linearGradient>
		<path fill="url(#SVGID_5_)" d="M246.442,625.502c0-3.902,0-4.602-0.049-5.402c-0.051-0.854-0.251-1.252-1.076-1.426
			c-0.199-0.053-0.626-0.078-0.852-0.078c-0.101,0-0.2-0.049-0.2-0.15c0-0.15,0.124-0.197,0.4-0.197c1.127,0,2.702,0.07,2.827,0.07
			c0.275,0,2.177-0.07,2.952-0.07c1.578,0,3.255,0.148,4.579,1.1c0.627,0.449,1.727,1.676,1.727,3.4
			c0,1.854-0.775,3.705-3.025,5.783c2.051,2.627,3.751,4.854,5.201,6.404c1.352,1.422,2.429,1.703,3.054,1.805
			c0.476,0.072,0.827,0.072,0.977,0.072c0.124,0,0.226,0.074,0.226,0.15c0,0.146-0.15,0.199-0.602,0.199h-1.777
			c-1.4,0-2.026-0.127-2.676-0.475c-1.075-0.576-1.953-1.805-3.377-3.678c-1.051-1.377-2.228-3.055-2.728-3.705
			c-0.1-0.102-0.178-0.15-0.328-0.15l-3.077-0.053c-0.124,0-0.175,0.078-0.175,0.203v0.602c0,2.4,0,4.379,0.126,5.428
			c0.077,0.729,0.228,1.275,0.977,1.377c0.35,0.049,0.899,0.102,1.124,0.102c0.152,0,0.203,0.074,0.203,0.15
			c0,0.125-0.126,0.199-0.402,0.199c-1.375,0-2.951-0.074-3.078-0.074c-0.024,0-1.6,0.074-2.352,0.074c-0.273,0-0.4-0.053-0.4-0.199
			c0-0.076,0.051-0.15,0.201-0.15c0.226,0,0.524-0.053,0.749-0.102c0.503-0.102,0.627-0.648,0.728-1.377
			c0.124-1.049,0.124-3.027,0.124-5.428V625.502z M248.443,627.68c0,0.123,0.051,0.225,0.175,0.301
			c0.376,0.225,1.526,0.398,2.629,0.398c0.599,0,1.3-0.072,1.877-0.475c0.874-0.598,1.526-1.951,1.526-3.854
			c0-3.127-1.652-5.004-4.33-5.004c-0.75,0-1.426,0.072-1.674,0.15c-0.128,0.049-0.203,0.15-0.203,0.301V627.68z"/>
		<linearGradient id="SVGID_6_" gradientUnits="userSpaceOnUse" x1="268.4463" y1="627.7051" x2="274.8516" y2="627.7051">
			<stop  offset="0" style="stop-color:#F15A24"/>
			<stop  offset="1" style="stop-color:#990000"/>
		</linearGradient>
		<path fill="url(#SVGID_6_)" d="M272.426,629.906c0,2.4,0,4.379,0.124,5.428c0.075,0.729,0.227,1.275,0.976,1.377
			c0.352,0.049,0.9,0.102,1.127,0.102c0.149,0,0.199,0.074,0.199,0.15c0,0.125-0.124,0.199-0.398,0.199
			c-1.377,0-2.951-0.074-3.079-0.074c-0.125,0-1.701,0.074-2.453,0.074c-0.274,0-0.4-0.053-0.4-0.199c0-0.076,0.05-0.15,0.202-0.15
			c0.226,0,0.526-0.053,0.751-0.102c0.499-0.102,0.626-0.648,0.724-1.377c0.127-1.049,0.127-3.027,0.127-5.428v-4.404
			c0-3.902,0-4.602-0.05-5.402c-0.051-0.854-0.302-1.279-0.853-1.402c-0.274-0.076-0.6-0.102-0.775-0.102
			c-0.099,0-0.2-0.049-0.2-0.15c0-0.15,0.124-0.197,0.4-0.197c0.826,0,2.402,0.07,2.527,0.07c0.128,0,1.702-0.07,2.453-0.07
			c0.274,0,0.398,0.047,0.398,0.197c0,0.102-0.1,0.15-0.199,0.15c-0.177,0-0.325,0.025-0.626,0.078
			c-0.676,0.121-0.875,0.547-0.924,1.426c-0.051,0.801-0.051,1.5-0.051,5.402V629.906z"/>
		<linearGradient id="SVGID_7_" gradientUnits="userSpaceOnUse" x1="283.541" y1="627.6162" x2="303.6582" y2="627.6162">
			<stop  offset="0" style="stop-color:#F15A24"/>
			<stop  offset="1" style="stop-color:#990000"/>
		</linearGradient>
		<path fill="url(#SVGID_7_)" d="M287.02,633.758c0.049,2.051,0.299,2.701,0.974,2.904c0.478,0.123,1.027,0.15,1.253,0.15
			c0.122,0,0.199,0.049,0.199,0.15c0,0.146-0.15,0.199-0.451,0.199c-1.425,0-2.427-0.074-2.652-0.074
			c-0.225,0-1.276,0.074-2.402,0.074c-0.249,0-0.398-0.025-0.398-0.199c0-0.102,0.074-0.15,0.198-0.15c0.2,0,0.652-0.027,1.026-0.15
			c0.625-0.176,0.751-0.902,0.751-3.178l0.024-14.336c0-0.98,0.076-1.254,0.274-1.254c0.203,0,0.625,0.551,0.878,0.803
			c0.375,0.422,4.103,4.453,7.956,8.58c2.479,2.652,5.204,5.705,6.007,6.533l-0.274-12.711c-0.028-1.629-0.203-2.178-0.979-2.381
			c-0.451-0.098-1.026-0.123-1.227-0.123c-0.176,0-0.199-0.076-0.199-0.176c0-0.15,0.199-0.172,0.501-0.172
			c1.126,0,2.326,0.07,2.603,0.07c0.274,0,1.099-0.07,2.125-0.07c0.274,0,0.452,0.021,0.452,0.172c0,0.1-0.1,0.176-0.275,0.176
			c-0.126,0-0.302,0-0.602,0.078c-0.825,0.174-0.926,0.723-0.926,2.227l-0.051,14.656c0,1.654-0.05,1.781-0.227,1.781
			c-0.197,0-0.497-0.277-1.823-1.602c-0.277-0.25-3.879-3.932-6.533-6.783c-2.9-3.125-5.73-6.279-6.528-7.18L287.02,633.758z"/>
		<linearGradient id="SVGID_8_" gradientUnits="userSpaceOnUse" x1="309.9229" y1="627.5283" x2="328.9873" y2="627.5283">
			<stop  offset="0" style="stop-color:#F15A24"/>
			<stop  offset="1" style="stop-color:#990000"/>
		</linearGradient>
		<path fill="url(#SVGID_8_)" d="M318.654,618.873c0.301-0.828,0.4-0.979,0.551-0.979c0.149,0,0.251,0.125,0.552,0.9
			c0.376,0.951,4.303,11.285,5.83,15.09c0.899,2.227,1.625,2.627,2.153,2.777c0.372,0.123,0.748,0.15,0.997,0.15
			c0.151,0,0.25,0.021,0.25,0.15c0,0.146-0.224,0.199-0.499,0.199c-0.376,0-2.204,0-3.929-0.053
			c-0.474-0.021-0.752-0.021-0.752-0.17c0-0.105,0.076-0.154,0.177-0.18c0.15-0.049,0.301-0.273,0.15-0.674l-2.328-6.156
			c-0.048-0.096-0.099-0.15-0.224-0.15h-5.382c-0.125,0-0.198,0.074-0.248,0.199l-1.501,4.43c-0.227,0.629-0.351,1.227-0.351,1.678
			c0,0.5,0.526,0.727,0.951,0.727h0.249c0.176,0,0.251,0.049,0.251,0.15c0,0.146-0.15,0.199-0.376,0.199
			c-0.602,0-1.677-0.074-1.952-0.074c-0.274,0-1.651,0.074-2.827,0.074c-0.325,0-0.475-0.053-0.475-0.199
			c0-0.102,0.099-0.15,0.227-0.15c0.174,0,0.521-0.027,0.725-0.053c1.148-0.15,1.649-1.102,2.101-2.352L318.654,618.873z
			 M321.257,628.879c0.126,0,0.126-0.074,0.102-0.176l-2.379-6.756c-0.124-0.373-0.25-0.373-0.374,0l-2.202,6.756
			c-0.051,0.127,0,0.176,0.073,0.176H321.257z"/>
		<linearGradient id="SVGID_9_" gradientUnits="userSpaceOnUse" x1="335.4023" y1="627.7051" x2="354.3203" y2="627.7051">
			<stop  offset="0" style="stop-color:#F15A24"/>
			<stop  offset="1" style="stop-color:#990000"/>
		</linearGradient>
		<path fill="url(#SVGID_9_)" d="M337.581,625.502c0-3.902,0-4.602-0.051-5.402c-0.049-0.854-0.252-1.252-1.074-1.426
			c-0.202-0.053-0.628-0.078-0.854-0.078c-0.1,0-0.2-0.049-0.2-0.15c0-0.15,0.126-0.197,0.398-0.197c1.128,0,2.706,0.07,2.831,0.07
			c0.273,0,2.177-0.07,2.952-0.07c1.575,0,3.252,0.148,4.579,1.1c0.624,0.449,1.725,1.676,1.725,3.4
			c0,1.854-0.775,3.705-3.025,5.783c2.053,2.627,3.753,4.854,5.205,6.404c1.351,1.422,2.425,1.703,3.049,1.805
			c0.476,0.072,0.829,0.072,0.979,0.072c0.123,0,0.225,0.074,0.225,0.15c0,0.146-0.149,0.199-0.601,0.199h-1.775
			c-1.401,0-2.027-0.127-2.68-0.475c-1.076-0.576-1.951-1.805-3.376-3.678c-1.053-1.377-2.228-3.055-2.729-3.705
			c-0.101-0.102-0.173-0.15-0.325-0.15l-3.078-0.053c-0.123,0-0.174,0.078-0.174,0.203v0.602c0,2.4,0,4.379,0.126,5.428
			c0.074,0.729,0.225,1.275,0.977,1.377c0.35,0.049,0.899,0.102,1.125,0.102c0.15,0,0.199,0.074,0.199,0.15
			c0,0.125-0.125,0.199-0.401,0.199c-1.376,0-2.952-0.074-3.076-0.074c-0.024,0-1.603,0.074-2.351,0.074
			c-0.276,0-0.402-0.053-0.402-0.199c0-0.076,0.05-0.15,0.2-0.15c0.225,0,0.528-0.053,0.751-0.102
			c0.502-0.102,0.624-0.648,0.728-1.377c0.124-1.049,0.124-3.027,0.124-5.428V625.502z M339.582,627.68
			c0,0.123,0.051,0.225,0.174,0.301c0.376,0.225,1.526,0.398,2.627,0.398c0.604,0,1.304-0.072,1.879-0.475
			c0.878-0.598,1.526-1.951,1.526-3.854c0-3.127-1.652-5.004-4.329-5.004c-0.75,0-1.427,0.072-1.677,0.15
			c-0.125,0.049-0.2,0.15-0.2,0.301V627.68z"/>
		<linearGradient id="SVGID_10_" gradientUnits="userSpaceOnUse" x1="355.7305" y1="627.7051" x2="373.7959" y2="627.7051">
			<stop  offset="0" style="stop-color:#F15A24"/>
			<stop  offset="1" style="stop-color:#990000"/>
		</linearGradient>
		<path fill="url(#SVGID_10_)" d="M363.736,630.682c0-1.352-0.247-1.9-0.575-2.627c-0.176-0.4-3.528-5.908-4.403-7.207
			c-0.626-0.928-1.251-1.553-1.702-1.854c-0.375-0.248-0.85-0.398-1.076-0.398c-0.124,0-0.249-0.049-0.249-0.176
			c0-0.102,0.101-0.172,0.325-0.172c0.476,0,2.354,0.07,2.477,0.07c0.175,0,1.125-0.07,2.104-0.07c0.273,0,0.324,0.07,0.324,0.172
			c0,0.1-0.15,0.127-0.375,0.225c-0.2,0.102-0.326,0.252-0.326,0.453c0,0.299,0.126,0.598,0.326,0.973
			c0.398,0.729,4.153,7.184,4.603,7.91c0.478-1.053,3.654-6.533,4.153-7.357c0.326-0.523,0.427-0.949,0.427-1.275
			c0-0.354-0.101-0.629-0.402-0.703c-0.225-0.072-0.374-0.125-0.374-0.248c0-0.102,0.149-0.148,0.4-0.148
			c0.652,0,1.452,0.07,1.652,0.07c0.149,0,1.951-0.07,2.427-0.07c0.174,0,0.325,0.047,0.325,0.148c0,0.123-0.125,0.199-0.325,0.199
			c-0.275,0-0.75,0.102-1.153,0.35c-0.498,0.301-0.772,0.602-1.323,1.277c-0.826,0.998-4.328,6.881-4.781,7.957
			c-0.375,0.9-0.375,1.674-0.375,2.502v2.15c0,0.402,0,1.453,0.076,2.502c0.051,0.729,0.274,1.275,1.026,1.377
			c0.349,0.049,0.9,0.102,1.125,0.102c0.152,0,0.203,0.074,0.203,0.15c0,0.125-0.128,0.199-0.404,0.199
			c-1.376,0-2.954-0.074-3.076-0.074c-0.127,0-1.699,0.074-2.452,0.074c-0.274,0-0.399-0.053-0.399-0.199
			c0-0.076,0.049-0.15,0.199-0.15c0.226,0,0.524-0.053,0.751-0.102c0.499-0.102,0.726-0.648,0.774-1.377
			c0.075-1.049,0.075-2.1,0.075-2.502V630.682z"/>
		<linearGradient id="SVGID_11_" gradientUnits="userSpaceOnUse" x1="393.499" y1="627.7031" x2="403.1348" y2="627.7031">
			<stop  offset="0" style="stop-color:#F15A24"/>
			<stop  offset="1" style="stop-color:#990000"/>
		</linearGradient>
		<path fill="url(#SVGID_11_)" d="M393.875,636.834c-0.352-0.172-0.376-0.273-0.376-0.947c0-1.252,0.102-2.252,0.125-2.652
			c0.026-0.277,0.077-0.402,0.202-0.402c0.148,0,0.173,0.076,0.173,0.275c0,0.229,0,0.576,0.077,0.928
			c0.374,1.852,2.027,2.551,3.702,2.551c2.404,0,3.578-1.723,3.578-3.326c0-1.729-0.727-2.729-2.878-4.504l-1.125-0.926
			c-2.651-2.178-3.251-3.73-3.251-5.432c0-2.678,2.001-4.504,5.178-4.504c0.976,0,1.701,0.102,2.328,0.252
			c0.476,0.102,0.675,0.123,0.873,0.123c0.2,0,0.252,0.049,0.252,0.176s-0.102,0.951-0.102,2.654c0,0.398-0.049,0.576-0.172,0.576
			c-0.154,0-0.177-0.127-0.203-0.326c-0.024-0.299-0.173-0.979-0.327-1.25c-0.146-0.277-0.823-1.328-3.126-1.328
			c-1.725,0-3.076,1.076-3.076,2.904c0,1.426,0.648,2.322,3.052,4.201l0.701,0.551c2.953,2.328,3.654,3.881,3.654,5.879
			c0,1.029-0.401,2.93-2.129,4.152c-1.075,0.752-2.427,1.053-3.779,1.053C396.054,637.512,394.898,637.338,393.875,636.834z"/>
		<linearGradient id="SVGID_12_" gradientUnits="userSpaceOnUse" x1="412.5742" y1="627.6406" x2="423.6572" y2="627.6406">
			<stop  offset="0" style="stop-color:#F15A24"/>
			<stop  offset="1" style="stop-color:#990000"/>
		</linearGradient>
		<path fill="url(#SVGID_12_)" d="M414.75,625.502c0-3.902,0-4.602-0.048-5.402c-0.051-0.854-0.251-1.252-1.078-1.426
			c-0.198-0.053-0.625-0.078-0.851-0.078c-0.1,0-0.199-0.049-0.199-0.15c0-0.15,0.126-0.197,0.4-0.197c0.575,0,1.25,0,1.802,0.021
			l1.025,0.049c0.176,0,5.154,0,5.73-0.023c0.476-0.025,0.876-0.078,1.076-0.127c0.124-0.021,0.225-0.123,0.351-0.123
			c0.074,0,0.099,0.102,0.099,0.225c0,0.176-0.123,0.477-0.2,1.176c-0.024,0.25-0.074,1.354-0.125,1.654
			c-0.024,0.121-0.075,0.275-0.174,0.275c-0.15,0-0.201-0.127-0.201-0.324c0-0.176-0.023-0.604-0.151-0.902
			c-0.174-0.402-0.424-0.703-1.775-0.854c-0.425-0.049-3.152-0.074-3.428-0.074c-0.101,0-0.152,0.074-0.152,0.25v6.904
			c0,0.18,0.026,0.254,0.152,0.254c0.324,0,3.404,0,3.978-0.051c0.601-0.051,0.95-0.102,1.176-0.35
			c0.178-0.201,0.276-0.328,0.376-0.328c0.076,0,0.125,0.053,0.125,0.203c0,0.146-0.125,0.574-0.2,1.402
			c-0.049,0.5-0.1,1.426-0.1,1.596c0,0.203,0,0.48-0.175,0.48c-0.126,0-0.175-0.102-0.175-0.229c0-0.252,0-0.498-0.099-0.822
			c-0.102-0.352-0.328-0.779-1.303-0.877c-0.677-0.074-3.154-0.123-3.581-0.123c-0.123,0-0.175,0.07-0.175,0.172v2.203
			c0,0.85-0.021,3.754,0,4.277c0.078,1.727,0.453,2.053,2.904,2.053c0.652,0,1.752,0,2.401-0.275
			c0.652-0.277,0.95-0.773,1.128-1.803c0.048-0.273,0.099-0.375,0.225-0.375c0.148,0,0.148,0.203,0.148,0.375
			c0,0.201-0.197,1.904-0.325,2.428c-0.173,0.65-0.373,0.65-1.351,0.65c-1.875,0-3.254-0.051-4.229-0.074
			c-0.975-0.053-1.577-0.074-1.951-0.074c-0.051,0-0.475,0-1.001,0.021c-0.502,0-1.075,0.053-1.451,0.053
			c-0.275,0-0.399-0.053-0.399-0.199c0-0.076,0.049-0.15,0.199-0.15c0.228,0,0.525-0.053,0.75-0.102
			c0.501-0.102,0.625-0.648,0.727-1.377c0.124-1.049,0.124-3.027,0.124-5.428V625.502z"/>
		<linearGradient id="SVGID_13_" gradientUnits="userSpaceOnUse" x1="432.8467" y1="627.7051" x2="451.7637" y2="627.7051">
			<stop  offset="0" style="stop-color:#F15A24"/>
			<stop  offset="1" style="stop-color:#990000"/>
		</linearGradient>
		<path fill="url(#SVGID_13_)" d="M435.026,625.502c0-3.902,0-4.602-0.051-5.402c-0.05-0.854-0.253-1.252-1.077-1.426
			c-0.199-0.053-0.626-0.078-0.85-0.078c-0.104,0-0.202-0.049-0.202-0.15c0-0.15,0.127-0.197,0.402-0.197
			c1.127,0,2.701,0.07,2.829,0.07c0.272,0,2.174-0.07,2.95-0.07c1.575,0,3.254,0.148,4.58,1.1c0.625,0.449,1.725,1.676,1.725,3.4
			c0,1.854-0.774,3.705-3.027,5.783c2.053,2.627,3.753,4.854,5.206,6.404c1.35,1.422,2.426,1.703,3.052,1.805
			c0.474,0.072,0.824,0.072,0.974,0.072c0.128,0,0.227,0.074,0.227,0.15c0,0.146-0.149,0.199-0.603,0.199h-1.773
			c-1.403,0-2.027-0.127-2.679-0.475c-1.076-0.576-1.951-1.805-3.375-3.678c-1.052-1.377-2.229-3.055-2.73-3.705
			c-0.099-0.102-0.173-0.15-0.324-0.15l-3.076-0.053c-0.128,0-0.177,0.078-0.177,0.203v0.602c0,2.4,0,4.379,0.128,5.428
			c0.073,0.729,0.222,1.275,0.973,1.377c0.351,0.049,0.901,0.102,1.128,0.102c0.148,0,0.198,0.074,0.198,0.15
			c0,0.125-0.125,0.199-0.401,0.199c-1.375,0-2.951-0.074-3.075-0.074c-0.026,0-1.601,0.074-2.353,0.074
			c-0.276,0-0.401-0.053-0.401-0.199c0-0.076,0.05-0.15,0.2-0.15c0.227,0,0.526-0.053,0.75-0.102
			c0.502-0.102,0.627-0.648,0.727-1.377c0.127-1.049,0.127-3.027,0.127-5.428V625.502z M437.026,627.68
			c0,0.123,0.049,0.225,0.177,0.301c0.372,0.225,1.523,0.398,2.624,0.398c0.604,0,1.303-0.072,1.879-0.475
			c0.876-0.598,1.526-1.951,1.526-3.854c0-3.127-1.654-5.004-4.33-5.004c-0.749,0-1.424,0.072-1.675,0.15
			c-0.127,0.049-0.201,0.15-0.201,0.301V627.68z"/>
		<linearGradient id="SVGID_14_" gradientUnits="userSpaceOnUse" x1="453.1758" y1="627.8799" x2="473.1172" y2="627.8799">
			<stop  offset="0" style="stop-color:#F15A24"/>
			<stop  offset="1" style="stop-color:#990000"/>
		</linearGradient>
		<path fill="url(#SVGID_14_)" d="M463.71,634.107c1.449-3.352,4.805-12.084,5.354-13.885c0.127-0.375,0.226-0.725,0.226-0.951
			c0-0.201-0.075-0.451-0.325-0.574c-0.302-0.102-0.676-0.102-0.951-0.102c-0.149,0-0.275-0.023-0.275-0.15
			c0-0.15,0.149-0.197,0.551-0.197c1.001,0,2.151,0.07,2.455,0.07c0.146,0,1.223-0.07,1.947-0.07c0.279,0,0.427,0.047,0.427,0.172
			c0,0.127-0.102,0.176-0.3,0.176c-0.176,0-0.726,0-1.201,0.301c-0.325,0.223-0.7,0.65-1.377,2.352
			c-0.274,0.699-1.526,3.701-2.801,6.781c-1.526,3.652-2.652,6.354-3.229,7.58c-0.699,1.5-0.8,1.902-1.052,1.902
			c-0.297,0-0.424-0.35-0.901-1.551l-6.128-15.338c-0.551-1.402-0.926-1.678-1.802-1.926c-0.374-0.102-0.801-0.102-0.949-0.102
			c-0.152,0-0.201-0.076-0.201-0.176c0-0.15,0.251-0.172,0.649-0.172c1.201,0,2.627,0.07,2.928,0.07c0.252,0,1.375-0.07,2.326-0.07
			c0.451,0,0.678,0.047,0.678,0.172c0,0.127-0.076,0.176-0.251,0.176c-0.274,0-0.727,0.025-0.948,0.123
			c-0.279,0.129-0.328,0.328-0.328,0.502c0,0.326,0.301,1.104,0.675,2.076L463.71,634.107z"/>
		<linearGradient id="SVGID_15_" gradientUnits="userSpaceOnUse" x1="479.9824" y1="627.7051" x2="486.3867" y2="627.7051">
			<stop  offset="0" style="stop-color:#F15A24"/>
			<stop  offset="1" style="stop-color:#990000"/>
		</linearGradient>
		<path fill="url(#SVGID_15_)" d="M483.96,629.906c0,2.4,0,4.379,0.125,5.428c0.073,0.729,0.228,1.275,0.976,1.377
			c0.352,0.049,0.901,0.102,1.126,0.102c0.149,0,0.2,0.074,0.2,0.15c0,0.125-0.124,0.199-0.4,0.199
			c-1.375,0-2.952-0.074-3.076-0.074c-0.125,0-1.701,0.074-2.453,0.074c-0.274,0-0.399-0.053-0.399-0.199
			c0-0.076,0.048-0.15,0.199-0.15c0.225,0,0.527-0.053,0.751-0.102c0.502-0.102,0.624-0.648,0.728-1.377
			c0.123-1.049,0.123-3.027,0.123-5.428v-4.404c0-3.902,0-4.602-0.05-5.402c-0.049-0.854-0.299-1.279-0.85-1.402
			c-0.276-0.076-0.601-0.102-0.776-0.102c-0.102,0-0.2-0.049-0.2-0.15c0-0.15,0.123-0.197,0.397-0.197c0.829,0,2.405,0.07,2.53,0.07
			c0.124,0,1.701-0.07,2.452-0.07c0.274,0,0.399,0.047,0.399,0.197c0,0.102-0.102,0.15-0.201,0.15c-0.175,0-0.325,0.025-0.624,0.078
			c-0.678,0.121-0.878,0.547-0.926,1.426c-0.051,0.801-0.051,1.5-0.051,5.402V629.906z"/>
		<linearGradient id="SVGID_16_" gradientUnits="userSpaceOnUse" x1="494.6494" y1="627.7031" x2="511.6396" y2="627.7031">
			<stop  offset="0" style="stop-color:#F15A24"/>
			<stop  offset="1" style="stop-color:#990000"/>
		</linearGradient>
		<path fill="url(#SVGID_16_)" d="M497.677,634.811c-2.426-2.18-3.027-5.031-3.027-7.406c0-1.678,0.575-4.604,2.804-6.83
			c1.501-1.504,3.777-2.68,7.632-2.68c1.001,0,2.4,0.076,3.629,0.305c0.95,0.17,1.749,0.32,2.549,0.373
			c0.275,0.023,0.326,0.125,0.326,0.275c0,0.199-0.075,0.5-0.124,1.402c-0.051,0.82-0.051,2.199-0.077,2.574
			c-0.024,0.375-0.074,0.525-0.224,0.525c-0.177,0-0.198-0.174-0.198-0.525c0-0.973-0.402-2.002-1.053-2.553
			c-0.876-0.752-2.802-1.424-5.004-1.424c-3.329,0-4.879,0.975-5.755,1.824c-1.828,1.756-2.253,3.982-2.253,6.533
			c0,4.777,3.68,9.152,9.033,9.152c1.876,0,3.353-0.223,4.354-1.248c0.525-0.551,0.85-1.652,0.925-2.1
			c0.05-0.277,0.101-0.379,0.252-0.379c0.124,0,0.175,0.176,0.175,0.379c0,0.176-0.299,2.35-0.551,3.203
			c-0.15,0.475-0.201,0.527-0.651,0.727c-0.998,0.398-2.901,0.572-4.503,0.572C502.182,637.512,499.654,636.586,497.677,634.811z"/>
		<linearGradient id="SVGID_17_" gradientUnits="userSpaceOnUse" x1="520.4805" y1="627.6406" x2="531.5684" y2="627.6406">
			<stop  offset="0" style="stop-color:#F15A24"/>
			<stop  offset="1" style="stop-color:#990000"/>
		</linearGradient>
		<path fill="url(#SVGID_17_)" d="M522.659,625.502c0-3.902,0-4.602-0.052-5.402c-0.048-0.854-0.251-1.252-1.076-1.426
			c-0.2-0.053-0.626-0.078-0.849-0.078c-0.102,0-0.202-0.049-0.202-0.15c0-0.15,0.124-0.197,0.4-0.197c0.574,0,1.251,0,1.802,0.021
			l1.025,0.049c0.176,0,5.154,0,5.73-0.023c0.478-0.025,0.875-0.078,1.075-0.127c0.126-0.021,0.228-0.123,0.354-0.123
			c0.072,0,0.098,0.102,0.098,0.225c0,0.176-0.125,0.477-0.2,1.176c-0.023,0.25-0.074,1.354-0.125,1.654
			c-0.021,0.121-0.076,0.275-0.176,0.275c-0.15,0-0.2-0.127-0.2-0.324c0-0.176-0.024-0.604-0.15-0.902
			c-0.175-0.402-0.421-0.703-1.777-0.854c-0.425-0.049-3.149-0.074-3.425-0.074c-0.1,0-0.154,0.074-0.154,0.25v6.904
			c0,0.18,0.028,0.254,0.154,0.254c0.325,0,3.403,0,3.979-0.051c0.597-0.051,0.948-0.102,1.175-0.35
			c0.174-0.201,0.272-0.328,0.374-0.328c0.074,0,0.124,0.053,0.124,0.203c0,0.146-0.124,0.574-0.199,1.402
			c-0.051,0.5-0.101,1.426-0.101,1.596c0,0.203,0,0.48-0.176,0.48c-0.121,0-0.172-0.102-0.172-0.229c0-0.252,0-0.498-0.102-0.822
			c-0.102-0.352-0.327-0.779-1.302-0.877c-0.673-0.074-3.151-0.123-3.578-0.123c-0.123,0-0.178,0.07-0.178,0.172v2.203
			c0,0.85-0.021,3.754,0,4.277c0.078,1.727,0.454,2.053,2.906,2.053c0.651,0,1.749,0,2.402-0.275
			c0.648-0.277,0.95-0.773,1.124-1.803c0.054-0.273,0.1-0.375,0.226-0.375c0.153,0,0.153,0.203,0.153,0.375
			c0,0.201-0.202,1.904-0.325,2.428c-0.178,0.65-0.376,0.65-1.355,0.65c-1.877,0-3.251-0.051-4.229-0.074
			c-0.974-0.053-1.574-0.074-1.95-0.074c-0.049,0-0.476,0-0.999,0.021c-0.502,0-1.076,0.053-1.452,0.053
			c-0.277,0-0.4-0.053-0.4-0.199c0-0.076,0.049-0.15,0.202-0.15c0.226,0,0.523-0.053,0.748-0.102c0.5-0.102,0.626-0.648,0.726-1.377
			c0.127-1.049,0.127-3.027,0.127-5.428V625.502z"/>
		<linearGradient id="SVGID_18_" gradientUnits="userSpaceOnUse" x1="540.957" y1="627.7031" x2="550.5908" y2="627.7031">
			<stop  offset="0" style="stop-color:#F15A24"/>
			<stop  offset="1" style="stop-color:#990000"/>
		</linearGradient>
		<path fill="url(#SVGID_18_)" d="M541.333,636.834c-0.35-0.172-0.376-0.273-0.376-0.947c0-1.252,0.102-2.252,0.126-2.652
			c0.023-0.277,0.071-0.402,0.199-0.402c0.149,0,0.176,0.076,0.176,0.275c0,0.229,0,0.576,0.075,0.928
			c0.374,1.852,2.027,2.551,3.702,2.551c2.402,0,3.578-1.723,3.578-3.326c0-1.729-0.725-2.729-2.878-4.504l-1.127-0.926
			c-2.649-2.178-3.251-3.73-3.251-5.432c0-2.678,2.003-4.504,5.179-4.504c0.977,0,1.701,0.102,2.327,0.252
			c0.476,0.102,0.676,0.123,0.876,0.123c0.198,0,0.251,0.049,0.251,0.176s-0.102,0.951-0.102,2.654c0,0.398-0.048,0.576-0.174,0.576
			c-0.154,0-0.176-0.127-0.199-0.326c-0.026-0.299-0.177-0.979-0.326-1.25c-0.149-0.277-0.83-1.328-3.129-1.328
			c-1.727,0-3.075,1.076-3.075,2.904c0,1.426,0.647,2.322,3.051,4.201l0.7,0.551c2.954,2.328,3.654,3.881,3.654,5.879
			c0,1.029-0.4,2.93-2.126,4.152c-1.077,0.752-2.429,1.053-3.781,1.053C543.51,637.512,542.356,637.338,541.333,636.834z"/>
	</g>
	<g>
		<path fill="#333333" d="M76.077,486.133c0,8.928,0,15.904,0.465,19.811c0.278,2.695,0.836,4.738,3.626,5.113
			c1.302,0.186,3.348,0.373,4.652,0.373c1.207,0,1.577,0.277,1.577,0.742c0,0.65-0.648,0.934-2.045,0.934
			c-5.859,0-11.715-0.283-14.132-0.283c-2.421,0-8.28,0.283-11.814,0.283c-1.302,0-1.953-0.188-1.953-0.934
			c0-0.465,0.372-0.742,1.396-0.742c1.396,0,2.512-0.188,3.35-0.373c1.86-0.375,2.323-2.418,2.696-5.113
			c0.467-3.906,0.467-10.883,0.467-19.811v-16.367c0-14.135,0-16.738-0.188-19.713c-0.187-3.164-0.93-4.652-4-5.303
			c-0.743-0.184-2.325-0.279-3.626-0.279c-0.932,0-1.58-0.186-1.58-0.744c0-0.746,0.742-0.93,2.137-0.93
			c2.42,0,5.116,0.094,7.532,0.094c2.419,0.09,4.56,0.186,5.859,0.186c3.536,0,22.413,0,24.553-0.096
			c1.765-0.09,2.881-0.09,3.813-0.369c0.558-0.186,1.022-0.559,1.487-0.559c0.37,0,0.651,0.373,0.651,0.838
			c0,0.65-0.465,1.766-0.743,4.188c-0.096,0.926-0.28,6.418-0.466,7.529c-0.095,0.748-0.279,1.303-0.93,1.303
			c-0.651,0-0.837-0.465-0.932-1.488c0-0.744,0-2.232-0.559-3.535c-0.648-1.303-2.601-2.693-6.136-2.787l-14.322-0.281
			c-0.555,0-0.836,0.281-0.836,1.301v23.25c0,0.559,0.092,0.84,0.649,0.84l11.905-0.096c1.581,0,2.883,0,4.186-0.092
			c1.765-0.094,3.066-0.463,3.996-1.672c0.467-0.561,0.653-0.934,1.211-0.934c0.37,0,0.557,0.279,0.557,0.838
			c0,0.557-0.462,2.883-0.743,5.768c-0.186,1.857-0.371,6.139-0.371,6.787c0,0.836,0,1.77-0.931,1.77
			c-0.558,0-0.743-0.654-0.743-1.303c0-0.652-0.188-1.768-0.558-2.887c-0.465-1.303-1.861-2.973-4.745-3.348
			c-2.322-0.273-12.182-0.273-13.764-0.273c-0.463,0-0.649,0.184-0.649,0.834V486.133z"/>
		<path fill="#333333" d="M133.82,486.133c0,11.906,0,18.322,1.953,19.996c1.582,1.395,3.999,2.045,11.254,2.045
			c4.929,0,8.556-0.092,10.879-2.605c1.115-1.207,2.231-3.813,2.418-5.58c0.094-0.836,0.28-1.393,1.024-1.393
			c0.651,0,0.743,0.465,0.743,1.58c0,1.02-0.651,7.998-1.394,10.697c-0.561,2.045-1.025,2.51-5.86,2.51
			c-6.696,0-11.531-0.188-15.716-0.277c-4.184-0.188-7.534-0.283-11.346-0.283c-1.023,0-3.068,0-5.302,0.096
			c-2.138,0-4.556,0.188-6.414,0.188c-1.212,0-1.86-0.283-1.86-0.934c0-0.465,0.37-0.742,1.486-0.742c1.396,0,2.51-0.188,3.35-0.373
			c1.858-0.375,2.323-2.418,2.696-5.113c0.467-3.906,0.467-11.256,0.467-19.811v-16.367c0-14.135,0-16.738-0.189-19.713
			c-0.185-3.164-0.929-4.652-3.996-5.303c-0.747-0.184-1.862-0.279-3.071-0.279c-1.023,0-1.579-0.186-1.579-0.834
			c0-0.656,0.649-0.84,2.045-0.84c4.37,0,10.229,0.279,12.739,0.279c2.233,0,9.021-0.279,12.649-0.279
			c1.304,0,1.954,0.184,1.954,0.84c0,0.648-0.561,0.834-1.676,0.834c-1.023,0-2.512,0.096-3.627,0.279
			c-2.51,0.465-3.256,2.045-3.439,5.303c-0.188,2.975-0.188,5.578-0.188,19.713V486.133z"/>
		<path fill="#333333" d="M178.454,469.766c0-14.135,0-16.738-0.188-19.713c-0.185-3.164-0.927-4.652-3.998-5.303
			c-0.743-0.184-2.326-0.279-3.627-0.279c-1.021,0-1.58-0.186-1.58-0.834c0-0.656,0.649-0.84,2.046-0.84
			c2.512,0,5.208,0.094,7.532,0.094c2.419,0.09,4.558,0.186,5.857,0.186c2.977,0,21.483,0,23.25-0.096
			c1.767-0.184,3.254-0.369,3.999-0.555c0.467-0.094,1.023-0.373,1.488-0.373s0.56,0.373,0.56,0.838c0,0.65-0.467,1.766-0.745,6.043
			c-0.094,0.93-0.279,5.023-0.468,6.139c-0.093,0.465-0.277,1.023-0.929,1.023s-0.837-0.465-0.837-1.301
			c0-0.652-0.092-2.232-0.556-3.348c-0.652-1.676-1.583-2.793-6.233-3.348c-1.58-0.189-11.346-0.375-13.204-0.375
			c-0.464,0-0.652,0.279-0.652,0.93v23.529c0,0.65,0.095,1.025,0.652,1.025c2.046,0,12.739,0,14.879-0.188
			c2.23-0.188,3.627-0.463,4.465-1.396c0.649-0.74,1.021-1.209,1.486-1.209c0.373,0,0.651,0.188,0.651,0.744
			c0,0.559-0.369,2.049-0.745,6.791c-0.093,1.859-0.371,5.582-0.371,6.232c0,0.74,0,1.764-0.837,1.764
			c-0.651,0-0.837-0.369-0.837-0.838c-0.093-0.926-0.093-2.137-0.371-3.346c-0.466-1.859-1.77-3.258-5.209-3.627
			c-1.766-0.186-10.975-0.279-13.206-0.279c-0.463,0-0.558,0.373-0.558,0.93v7.346c0,3.162-0.091,11.719,0,14.414
			c0.188,6.418,1.675,7.813,11.16,7.813c2.418,0,6.324,0,8.741-1.115s3.534-3.07,4.184-6.883c0.188-1.023,0.374-1.395,1.024-1.395
			c0.746,0,0.746,0.744,0.746,1.674c0,2.141-0.746,8.463-1.212,10.322c-0.649,2.42-1.486,2.42-5.021,2.42
			c-6.973,0-12.088-0.188-16.089-0.277c-3.998-0.188-6.88-0.283-9.671-0.283c-1.022,0-3.068,0-5.299,0.096
			c-2.141,0-4.56,0.188-6.419,0.188c-1.207,0-1.856-0.283-1.856-0.934c0-0.465,0.368-0.742,1.484-0.742
			c1.396,0,2.512-0.188,3.351-0.373c1.859-0.375,2.322-2.418,2.695-5.113c0.467-3.906,0.467-11.256,0.467-19.811V469.766z"/>
		<path fill="#333333" d="M249.589,448.004l-13.859,0.371c-5.392,0.189-7.624,0.654-9.019,2.699
			c-0.93,1.393-1.395,2.512-1.582,3.252c-0.186,0.746-0.462,1.119-1.02,1.119c-0.654,0-0.839-0.465-0.839-1.488
			c0-1.49,1.766-9.951,1.953-10.695c0.277-1.209,0.558-1.766,1.117-1.766c0.742,0,1.674,0.93,3.997,1.115
			c2.697,0.279,6.229,0.465,9.3,0.465h36.827c2.974,0,5.022-0.279,6.417-0.465c1.394-0.279,2.138-0.465,2.509-0.465
			c0.651,0,0.745,0.559,0.745,1.949c0,1.955-0.28,8.371-0.28,10.791c-0.091,0.93-0.277,1.488-0.836,1.488
			c-0.744,0-0.931-0.465-1.022-1.859l-0.093-1.02c-0.187-2.422-2.696-5.027-10.974-5.211l-11.717-0.281v38.129
			c0,8.555,0,15.904,0.462,19.902c0.281,2.604,0.839,4.646,3.628,5.021c1.303,0.186,3.35,0.373,4.746,0.373
			c1.02,0,1.486,0.277,1.486,0.742c0,0.65-0.744,0.934-1.769,0.934c-6.138,0-11.994-0.283-14.6-0.283
			c-2.139,0-7.998,0.283-11.717,0.283c-1.21,0-1.862-0.283-1.862-0.934c0-0.465,0.375-0.742,1.489-0.742
			c1.396,0,2.51-0.188,3.35-0.373c1.858-0.375,2.416-2.418,2.696-5.113c0.465-3.906,0.465-11.256,0.465-19.811V448.004z"/>
		<path fill="#333333" d="M303.426,504.27c-9.111-8.002-11.53-18.418-11.53-27.438c0-6.324,1.952-17.297,10.881-25.48
			c6.696-6.137,15.53-9.855,29.387-9.855c5.765,0,9.206,0.375,13.484,0.93c3.534,0.465,6.508,1.301,9.301,1.58
			c1.021,0.09,1.395,0.561,1.395,1.119c0,0.74-0.279,1.859-0.467,5.111c-0.186,3.07-0.093,8.184-0.277,10.043
			c-0.096,1.398-0.278,2.143-1.115,2.143c-0.747,0-0.932-0.744-0.932-2.049c-0.092-2.883-1.303-6.137-3.628-8.557
			c-3.069-3.252-10.32-5.766-18.878-5.766c-8.089,0-13.392,2.049-17.482,5.766c-6.79,6.232-8.555,15.068-8.555,24.088
			c0,22.135,16.832,33.105,29.291,33.105c8.279,0,13.3-0.928,17.021-5.209c1.58-1.764,2.789-4.463,3.163-6.135
			c0.275-1.488,0.465-1.863,1.207-1.863c0.652,0,0.835,0.656,0.835,1.396c0,1.117-1.112,9.211-2.042,12.367
			c-0.467,1.586-0.838,2.045-2.421,2.701c-3.719,1.488-10.787,2.137-16.738,2.137C322.583,514.404,311.89,511.611,303.426,504.27z"
			/>
		<path fill="#333333" d="M424.126,472.369c0.279,0,0.56-0.186,0.56-0.65v-1.953c0-14.135,0-16.738-0.188-19.713
			c-0.186-3.164-0.929-4.652-3.998-5.303c-0.745-0.184-2.322-0.279-3.628-0.279c-1.022,0-1.58-0.186-1.58-0.834
			c0-0.656,0.651-0.84,1.954-0.84c5.021,0,10.88,0.279,13.39,0.279c2.233,0,8.091-0.279,11.718-0.279
			c1.304,0,1.954,0.184,1.954,0.84c0,0.648-0.558,0.834-1.675,0.834c-0.743,0-1.581,0.096-2.696,0.279
			c-2.512,0.465-3.254,2.045-3.441,5.303c-0.187,2.975-0.187,5.578-0.187,19.713v16.367c0,8.555,0,15.904,0.464,19.902
			c0.28,2.604,0.838,4.646,3.629,5.021c1.302,0.186,3.349,0.373,4.742,0.373c1.022,0,1.487,0.277,1.487,0.742
			c0,0.65-0.742,0.934-1.86,0.934c-6.044,0-11.901-0.283-14.506-0.283c-2.139,0-7.998,0.283-11.625,0.283
			c-1.303,0-1.953-0.283-1.953-0.934c0-0.465,0.375-0.742,1.491-0.742c1.393,0,2.507-0.188,3.345-0.373
			c1.86-0.375,2.325-2.418,2.696-5.113c0.467-3.906,0.467-11.256,0.467-19.811v-8.182c0-0.375-0.28-0.561-0.56-0.561h-35.525
			c-0.277,0-0.555,0.096-0.555,0.561v8.182c0,8.555,0,15.904,0.463,19.902c0.279,2.604,0.837,4.646,3.627,5.021
			c1.302,0.186,3.35,0.373,4.743,0.373c1.021,0,1.488,0.277,1.488,0.742c0,0.65-0.745,0.934-1.862,0.934
			c-6.042,0-11.903-0.283-14.506-0.283c-2.14,0-7.997,0.283-11.718,0.283c-1.21,0-1.859-0.283-1.859-0.934
			c0-0.465,0.372-0.742,1.487-0.742c1.395,0,2.511-0.188,3.348-0.373c1.86-0.375,2.327-2.418,2.699-5.113
			c0.465-3.906,0.465-11.256,0.465-19.811v-16.367c0-14.135,0-16.738-0.188-19.713c-0.187-3.164-0.93-4.652-3.998-5.303
			c-0.743-0.184-2.326-0.279-3.628-0.279c-1.021,0-1.583-0.186-1.583-0.834c0-0.656,0.653-0.84,1.954-0.84
			c5.023,0,10.881,0.279,13.393,0.279c2.23,0,8.092-0.279,11.718-0.279c1.302,0,1.954,0.184,1.954,0.84
			c0,0.648-0.558,0.834-1.673,0.834c-0.746,0-1.584,0.096-2.699,0.279c-2.51,0.465-3.255,2.045-3.44,5.303
			c-0.185,2.975-0.185,5.578-0.185,19.713v1.953c0,0.465,0.277,0.65,0.555,0.65H424.126z"/>
		<path fill="#333333" d="M466.801,469.766c0-14.135,0-16.738-0.185-19.713c-0.187-3.164-0.932-4.652-3.999-5.303
			c-0.744-0.184-2.325-0.279-3.629-0.279c-1.021,0-1.58-0.186-1.58-0.834c0-0.656,0.65-0.84,2.047-0.84
			c2.512,0,5.21,0.094,7.53,0.094c2.421,0.09,4.56,0.186,5.861,0.186c2.975,0,21.483,0,23.25-0.096
			c1.765-0.184,3.253-0.369,3.997-0.555c0.467-0.094,1.024-0.373,1.489-0.373c0.464,0,0.557,0.373,0.557,0.838
			c0,0.65-0.465,1.766-0.741,6.043c-0.095,0.93-0.28,5.023-0.469,6.139c-0.092,0.465-0.278,1.023-0.927,1.023
			c-0.653,0-0.839-0.465-0.839-1.301c0-0.652-0.093-2.232-0.558-3.348c-0.65-1.676-1.58-2.793-6.229-3.348
			c-1.583-0.189-11.349-0.375-13.208-0.375c-0.465,0-0.649,0.279-0.649,0.93v23.529c0,0.65,0.091,1.025,0.649,1.025
			c2.047,0,12.74,0,14.879-0.188c2.231-0.188,3.629-0.463,4.463-1.396c0.653-0.74,1.028-1.209,1.492-1.209
			c0.369,0,0.648,0.188,0.648,0.744c0,0.559-0.371,2.049-0.744,6.791c-0.092,1.859-0.368,5.582-0.368,6.232
			c0,0.74,0,1.764-0.841,1.764c-0.649,0-0.837-0.369-0.837-0.838c-0.093-0.926-0.093-2.137-0.37-3.346
			c-0.465-1.859-1.771-3.258-5.208-3.627c-1.77-0.186-10.975-0.279-13.205-0.279c-0.468,0-0.559,0.373-0.559,0.93v7.346
			c0,3.162-0.094,11.719,0,14.414c0.185,6.418,1.672,7.813,11.16,7.813c2.417,0,6.322,0,8.741-1.115
			c2.417-1.115,3.533-3.07,4.186-6.883c0.184-1.023,0.37-1.395,1.021-1.395c0.746,0,0.746,0.744,0.746,1.674
			c0,2.141-0.746,8.463-1.21,10.322c-0.649,2.42-1.488,2.42-5.021,2.42c-6.976,0-12.092-0.188-16.089-0.277
			c-3.999-0.188-6.884-0.283-9.672-0.283c-1.024,0-3.068,0-5.302,0.096c-2.14,0-4.559,0.188-6.417,0.188
			c-1.208,0-1.859-0.283-1.859-0.934c0-0.465,0.373-0.742,1.488-0.742c1.395,0,2.511-0.188,3.349-0.373
			c1.859-0.375,2.324-2.418,2.694-5.113c0.466-3.906,0.466-11.256,0.466-19.811V469.766z"/>
		<path fill="#333333" d="M525.569,469.766c0-14.135,0-16.738-0.188-19.713c-0.185-3.164-0.932-4.652-3.998-5.303
			c-0.744-0.184-2.328-0.279-3.626-0.279c-1.023,0-1.583-0.186-1.583-0.834c0-0.656,0.651-0.84,2.047-0.84
			c4.928,0,10.785,0.279,12.741,0.279c3.161,0,10.229-0.279,13.111-0.279c5.857,0,12.09,0.559,17.108,3.998
			c2.608,1.77,6.324,6.512,6.324,12.74c0,6.885-2.881,13.209-12.271,20.834c8.273,10.416,14.692,18.691,20.181,24.455
			c5.206,5.395,9.017,6.049,10.415,6.328c1.022,0.186,1.859,0.277,2.602,0.277c0.747,0,1.117,0.277,1.117,0.742
			c0,0.746-0.653,0.934-1.769,0.934h-8.836c-5.204,0-7.53-0.469-9.946-1.768c-4.003-2.141-7.535-6.514-12.74-13.672
			c-3.722-5.115-8.001-11.438-9.208-12.834c-0.467-0.557-1.024-0.648-1.674-0.648l-8.09-0.189c-0.465,0-0.743,0.189-0.743,0.746
			v1.303c0,8.645,0,15.994,0.464,19.9c0.279,2.695,0.834,4.738,3.624,5.113c1.396,0.186,3.442,0.373,4.557,0.373
			c0.747,0,1.12,0.277,1.12,0.742c0,0.65-0.654,0.934-1.863,0.934c-5.394,0-12.276-0.283-13.673-0.283
			c-1.766,0-7.623,0.283-11.344,0.283c-1.207,0-1.86-0.283-1.86-0.934c0-0.465,0.376-0.742,1.487-0.742
			c1.397,0,2.516-0.188,3.352-0.373c1.858-0.375,2.325-2.418,2.695-5.113c0.467-3.906,0.467-11.256,0.467-19.811V469.766z
			 M536.544,477.111c0,1.025,0.184,1.395,0.834,1.676c1.951,0.648,4.744,0.934,7.067,0.934c3.72,0,4.931-0.377,6.605-1.584
			c2.789-2.045,5.484-6.326,5.484-13.949c0-13.205-8.742-17.02-14.229-17.02c-2.324,0-3.996,0.092-4.928,0.371
			c-0.65,0.186-0.834,0.561-0.834,1.305V477.111z"/>
	</g>
	<g>
		<path fill="#333333" d="M163.954,547.451c0-14.133,0-16.738-0.188-19.711c-0.186-3.162-0.928-4.652-3.998-5.303
			c-0.744-0.188-2.324-0.279-3.625-0.279c-1.024,0-1.583-0.186-1.583-0.84c0-0.646,0.649-0.834,2.045-0.834
			c2.513,0,5.209,0.094,7.533,0.094c2.417,0.094,4.56,0.184,5.861,0.184c2.975,0,21.479,0,23.246-0.09
			c1.767-0.188,3.257-0.375,4.001-0.559c0.463-0.094,1.022-0.375,1.487-0.375c0.464,0,0.559,0.375,0.559,0.84
			c0,0.648-0.468,1.764-0.746,6.043c-0.091,0.93-0.277,5.021-0.465,6.141c-0.093,0.461-0.277,1.021-0.928,1.021
			c-0.651,0-0.839-0.465-0.839-1.305c0-0.65-0.091-2.23-0.558-3.346c-0.65-1.672-1.582-2.791-6.23-3.348
			c-1.581-0.186-11.347-0.373-13.205-0.373c-0.467,0-0.651,0.277-0.651,0.93v23.527c0,0.65,0.094,1.023,0.651,1.023
			c2.045,0,12.74,0,14.879-0.182c2.232-0.191,3.628-0.469,4.466-1.398c0.648-0.746,1.021-1.211,1.487-1.211
			c0.37,0,0.65,0.186,0.65,0.748c0,0.555-0.373,2.043-0.745,6.789c-0.093,1.855-0.372,5.576-0.372,6.227
			c0,0.746,0,1.768-0.837,1.768c-0.65,0-0.838-0.373-0.838-0.838c-0.092-0.93-0.092-2.137-0.37-3.348
			c-0.467-1.859-1.766-3.254-5.207-3.625c-1.768-0.184-10.976-0.279-13.207-0.279c-0.464,0-0.558,0.375-0.558,0.93v7.348
			c0,3.164-0.092,11.717,0,14.414c0.185,6.416,1.674,7.811,11.16,7.811c2.417,0,6.322,0,8.741-1.115
			c2.417-1.117,3.532-3.066,4.184-6.881c0.188-1.023,0.372-1.395,1.022-1.395c0.745,0,0.745,0.74,0.745,1.674
			c0,2.139-0.745,8.463-1.208,10.322c-0.652,2.418-1.49,2.418-5.022,2.418c-6.975,0-12.09-0.188-16.091-0.279
			c-3.996-0.186-6.879-0.277-9.669-0.277c-1.024,0-3.07,0-5.302,0.092c-2.14,0-4.556,0.186-6.414,0.186
			c-1.212,0-1.862-0.277-1.862-0.932c0-0.465,0.372-0.742,1.489-0.742c1.394,0,2.511-0.188,3.348-0.371
			c1.859-0.373,2.322-2.418,2.696-5.117c0.466-3.904,0.466-11.25,0.466-19.807V547.451z"/>
		<path fill="#333333" d="M265.031,589.674c-3.719,1.395-9.669,2.418-14.599,2.418c-27.249,0-37.85-20.18-37.85-36.918
			c0-15.16,10.881-35.992,38.127-35.992c22.228,0,37.664,13.482,37.664,35.242c0,16.369-10.321,26.693-16.181,30.602l18.691,9.576
			c19.622,10.043,31.992,11.066,38.314,11.066c4.836,0,11.72-0.746,18.135-3.254c0.558-0.188,1.024-0.465,1.396-0.465
			c0.465,0,0.835,0.373,0.835,0.834c0,0.559-0.465,0.84-1.116,1.119c-5.578,2.697-16.089,6.973-29.479,6.973
			c-14.041,0-23.991-3.629-39.337-12.648L265.031,589.674z M275.356,556.938c0-22.504-13.95-33.291-26.783-33.291
			c-12.185,0-23.063,7.813-23.063,29.383c0,22.135,13.39,34.41,28.362,34.41C261.313,587.439,275.356,584.186,275.356,556.938z"/>
		<path fill="#333333" d="M305.2,547.451c0-14.133,0-16.738-0.189-19.711c-0.185-3.162-0.929-4.652-3.996-5.303
			c-0.744-0.188-2.327-0.279-3.628-0.279c-1.021,0-1.58-0.186-1.58-0.84c0-0.646,0.648-0.834,2.043-0.834
			c4.93,0,10.789,0.277,13.579,0.277c2.231,0,8.091-0.277,11.438-0.277c1.396,0,2.045,0.188,2.045,0.834
			c0,0.654-0.558,0.84-1.485,0.84c-1.024,0-1.583,0.092-2.698,0.279c-2.512,0.465-3.257,2.049-3.44,5.303
			c-0.186,2.973-0.186,5.578-0.186,19.711v13.025c0,13.48,2.696,19.152,7.252,22.873c4.187,3.441,8.464,3.811,11.626,3.811
			c4.091,0,9.111-1.299,12.833-5.02c5.114-5.115,5.395-13.484,5.395-23.063v-11.627c0-14.133,0-16.738-0.187-19.711
			c-0.187-3.162-0.932-4.652-3.999-5.303c-0.745-0.188-2.325-0.279-3.35-0.279c-1.021,0-1.581-0.186-1.581-0.84
			c0-0.646,0.654-0.834,1.954-0.834c4.744,0,10.603,0.277,10.694,0.277c1.117,0,6.975-0.277,10.601-0.277
			c1.305,0,1.954,0.188,1.954,0.834c0,0.654-0.557,0.84-1.674,0.84c-1.022,0-1.579,0.092-2.696,0.279
			c-2.512,0.465-3.254,2.049-3.441,5.303c-0.185,2.973-0.185,5.578-0.185,19.711v9.951c0,10.32-1.024,21.297-8.836,27.99
			c-6.603,5.676-13.299,6.699-19.343,6.699c-4.93,0-13.858-0.279-20.645-6.416c-4.744-4.277-8.275-11.162-8.275-24.645V547.451z"/>
		<path fill="#333333" d="M388.422,547.451c0-14.133,0-16.738-0.188-19.711c-0.186-3.162-1.117-4.748-3.162-5.207
			c-1.022-0.283-2.231-0.375-3.35-0.375c-0.928,0-1.485-0.186-1.485-0.932c0-0.555,0.742-0.742,2.231-0.742
			c3.534,0,9.394,0.277,12.09,0.277c2.325,0,7.812-0.277,11.346-0.277c1.208,0,1.953,0.188,1.953,0.742
			c0,0.746-0.56,0.932-1.489,0.932c-0.932,0-1.674,0.092-2.79,0.279c-2.512,0.465-3.253,2.049-3.439,5.303
			c-0.189,2.973-0.189,5.578-0.189,19.711v16.369c0,9.021,0,16.367,0.376,20.365c0.277,2.514,0.93,4.186,3.72,4.559
			c1.302,0.184,3.346,0.371,4.74,0.371c1.024,0,1.491,0.277,1.491,0.742c0,0.654-0.748,0.932-1.768,0.932
			c-6.139,0-11.998-0.277-14.51-0.277c-2.137,0-7.996,0.277-11.717,0.277c-1.209,0-1.86-0.277-1.86-0.932
			c0-0.465,0.373-0.742,1.488-0.742c1.395,0,2.511-0.188,3.349-0.371c1.858-0.373,2.416-1.953,2.697-4.648
			c0.466-3.908,0.466-11.254,0.466-20.275V547.451z"/>
		<path fill="#333333" d="M435.656,578.139c0.188,7.254,1.396,9.674,3.257,10.324c1.582,0.557,3.348,0.652,4.837,0.652
			c1.021,0,1.58,0.186,1.58,0.742c0,0.746-0.84,0.932-2.14,0.932c-6.044,0-9.766-0.277-11.532-0.277
			c-0.838,0-5.206,0.277-10.043,0.277c-1.208,0-2.045-0.096-2.045-0.932c0-0.557,0.556-0.742,1.487-0.742
			c1.209,0,2.881-0.096,4.185-0.465c2.417-0.744,2.79-3.439,2.884-11.533l0.836-54.775c0-1.857,0.278-3.16,1.209-3.16
			c1.022,0,1.859,1.207,3.439,2.883c1.118,1.211,15.252,16.086,28.827,29.572c6.326,6.326,18.882,19.715,20.462,21.205h0.465
			l-0.931-41.756c-0.094-5.674-0.93-7.439-3.161-8.371c-1.395-0.557-3.627-0.557-4.93-0.557c-1.115,0-1.487-0.281-1.487-0.84
			c0-0.74,1.024-0.834,2.418-0.834c4.837,0,9.3,0.277,11.253,0.277c1.022,0,4.556-0.277,9.112-0.277
			c1.211,0,2.141,0.094,2.141,0.834c0,0.559-0.559,0.84-1.674,0.84c-0.932,0-1.674,0-2.792,0.279
			c-2.603,0.744-3.346,2.697-3.438,7.902l-1.024,58.68c0,2.049-0.372,2.883-1.209,2.883c-1.022,0-2.138-1.021-3.161-2.045
			c-5.858-5.58-17.763-17.762-27.432-27.342c-10.14-10.041-20.461-21.387-22.135-23.154h-0.28L435.656,578.139z"/>
		<path fill="#333333" d="M518.507,547.451c0-14.133,0-16.738-0.185-19.711c-0.188-3.162-0.931-4.652-3.998-5.303
			c-0.745-0.188-2.326-0.279-3.628-0.279c-1.022,0-1.582-0.186-1.582-0.84c0-0.646,0.651-0.834,2.047-0.834
			c2.512,0,5.21,0.094,7.533,0.094c2.416,0.094,4.559,0.184,5.859,0.184c2.977,0,21.482,0,23.248-0.09
			c1.766-0.188,3.253-0.375,3.998-0.559c0.465-0.094,1.025-0.375,1.487-0.375c0.465,0,0.56,0.375,0.56,0.84
			c0,0.648-0.467,1.764-0.744,6.043c-0.094,0.93-0.277,5.021-0.465,6.141c-0.091,0.461-0.279,1.021-0.932,1.021
			c-0.651,0-0.833-0.465-0.833-1.305c0-0.65-0.093-2.23-0.56-3.346c-0.652-1.672-1.58-2.791-6.233-3.348
			c-1.578-0.186-11.345-0.373-13.203-0.373c-0.465,0-0.651,0.277-0.651,0.93v23.527c0,0.65,0.094,1.023,0.651,1.023
			c2.046,0,12.741,0,14.877-0.182c2.233-0.191,3.63-0.469,4.467-1.398c0.652-0.746,1.021-1.211,1.485-1.211
			c0.375,0,0.652,0.186,0.652,0.748c0,0.555-0.371,2.043-0.745,6.789c-0.091,1.855-0.372,5.576-0.372,6.227
			c0,0.746,0,1.768-0.837,1.768c-0.651,0-0.837-0.373-0.837-0.838c-0.093-0.93-0.093-2.137-0.369-3.348
			c-0.465-1.859-1.771-3.254-5.209-3.625c-1.768-0.184-10.976-0.279-13.205-0.279c-0.465,0-0.559,0.375-0.559,0.93v7.348
			c0,3.164-0.094,11.717,0,14.414c0.187,6.416,1.674,7.811,11.159,7.811c2.417,0,6.324,0,8.741-1.115
			c2.421-1.117,3.535-3.066,4.186-6.881c0.188-1.023,0.371-1.395,1.024-1.395c0.741,0,0.741,0.74,0.741,1.674
			c0,2.139-0.741,8.463-1.21,10.322c-0.646,2.418-1.487,2.418-5.019,2.418c-6.975,0-12.09-0.188-16.088-0.279
			c-4.002-0.186-6.885-0.277-9.674-0.277c-1.021,0-3.067,0-5.3,0.092c-2.14,0-4.556,0.186-6.417,0.186
			c-1.209,0-1.86-0.277-1.86-0.932c0-0.465,0.373-0.742,1.488-0.742c1.395,0,2.511-0.188,3.349-0.371
			c1.858-0.373,2.323-2.418,2.697-5.117c0.463-3.904,0.463-11.25,0.463-19.807V547.451z"/>
	</g>
	<g>
		
			<linearGradient id="SVGID_19_" gradientUnits="userSpaceOnUse" x1="489.8623" y1="228.1855" x2="546.1787" y2="228.1855" gradientTransform="matrix(0.9937 0.1119 -0.1119 0.9937 51.641 -68.0197)">
			<stop  offset="0" style="stop-color:#F15A24"/>
			<stop  offset="1" style="stop-color:#990000"/>
		</linearGradient>
		<path fill="url(#SVGID_19_)" d="M514.54,198.835c0,0,16.358,30.701,53.371,29.303l-10.994,5.023
			C556.917,233.161,530.624,235.066,514.54,198.835z"/>
		
			<linearGradient id="SVGID_20_" gradientUnits="userSpaceOnUse" x1="470.5117" y1="242.3516" x2="526.832" y2="242.3516" gradientTransform="matrix(0.9937 0.1119 -0.1119 0.9937 51.641 -68.0197)">
			<stop  offset="0" style="stop-color:#F15A24"/>
			<stop  offset="1" style="stop-color:#990000"/>
		</linearGradient>
		<path fill="url(#SVGID_20_)" d="M493.727,210.747c0,0,16.361,30.701,53.375,29.307l-11,5.019
			C536.102,245.072,509.812,246.977,493.727,210.747z"/>
		
			<linearGradient id="SVGID_21_" gradientUnits="userSpaceOnUse" x1="646.0039" y1="382.333" x2="671.3887" y2="382.333" gradientTransform="matrix(0.9937 0.1119 -0.1119 0.9937 51.641 -68.0197)">
			<stop  offset="0" style="stop-color:#F15A24"/>
			<stop  offset="1" style="stop-color:#990000"/>
		</linearGradient>
		<path fill="url(#SVGID_21_)" d="M656.476,333.723c0,0,44.792,51.456-2.098,101.982
			C654.378,435.705,688.851,384.305,656.476,333.723z"/>
		
			<linearGradient id="SVGID_22_" gradientUnits="userSpaceOnUse" x1="658.9775" y1="464.7334" x2="673.9883" y2="464.7334" gradientTransform="matrix(0.9937 0.1119 -0.1119 0.9937 51.641 -68.0197)">
			<stop  offset="0" style="stop-color:#F15A24"/>
			<stop  offset="1" style="stop-color:#990000"/>
		</linearGradient>
		<path fill="url(#SVGID_22_)" d="M662.917,429.365c0,0-18.248,32.361,2.114,78.461C665.031,507.826,653.87,472.67,662.917,429.365z
			"/>
		
			<linearGradient id="SVGID_23_" gradientUnits="userSpaceOnUse" x1="598.3262" y1="484.166" x2="619.6143" y2="484.166" gradientTransform="matrix(0.9937 0.1119 -0.1119 0.9937 51.641 -68.0197)">
			<stop  offset="0" style="stop-color:#F15A24"/>
			<stop  offset="1" style="stop-color:#990000"/>
		</linearGradient>
		<path fill="url(#SVGID_23_)" d="M596.456,440.654c0,0,13.495,46.889,9.672,80.877
			C606.128,521.531,622.188,494.654,596.456,440.654z"/>
		
			<linearGradient id="SVGID_24_" gradientUnits="userSpaceOnUse" x1="622.6826" y1="531.874" x2="675.5742" y2="531.874" gradientTransform="matrix(0.9937 0.1119 -0.1119 0.9937 51.641 -68.0197)">
			<stop  offset="0" style="stop-color:#F15A24"/>
			<stop  offset="1" style="stop-color:#990000"/>
		</linearGradient>
		<path fill="url(#SVGID_24_)" d="M610.685,531.967c0,0,8.393,13.449,15.722,13.23c7.322-0.215,20.198,1.232,25.696-1.279
			c5.496-2.51,12.902-17.322,12.79-20.984c0,0-8.375,14.184-14.728,15.033c-6.354,0.85-25.239,1.848-25.239,1.848L610.685,531.967z"
			/>
		
			<linearGradient id="SVGID_25_" gradientUnits="userSpaceOnUse" x1="657.5498" y1="516.6592" x2="668.4258" y2="516.6592" gradientTransform="matrix(0.9937 0.1119 -0.1119 0.9937 51.641 -68.0197)">
			<stop  offset="0" style="stop-color:#F15A24"/>
			<stop  offset="1" style="stop-color:#990000"/>
		</linearGradient>
		<path fill="url(#SVGID_25_)" d="M657.474,510.104c0,0-18.972,20.289-7.352,18.988
			C661.739,527.793,657.474,510.104,657.474,510.104z"/>
		
			<linearGradient id="SVGID_26_" gradientUnits="userSpaceOnUse" x1="627.8662" y1="520.4395" x2="634.1367" y2="520.4395" gradientTransform="matrix(0.9937 0.1119 -0.1119 0.9937 51.641 -68.0197)">
			<stop  offset="0" style="stop-color:#F15A24"/>
			<stop  offset="1" style="stop-color:#990000"/>
		</linearGradient>
		<path fill="url(#SVGID_26_)" d="M618.271,510.902c0,0,4.108,9.84-0.709,15.568C617.563,526.471,628.938,536.613,618.271,510.902z"
			/>
		
			<linearGradient id="SVGID_27_" gradientUnits="userSpaceOnUse" x1="608.1738" y1="453.9893" x2="632.5264" y2="453.9893" gradientTransform="matrix(0.9937 0.1119 -0.1119 0.9937 51.641 -68.0197)">
			<stop  offset="0" style="stop-color:#F15A24"/>
			<stop  offset="1" style="stop-color:#990000"/>
		</linearGradient>
		<path fill="url(#SVGID_27_)" d="M608.735,419.613c0,0,7.41,59.238,15.584,65.373C632.494,491.125,608.735,419.613,608.735,419.613
			z"/>
		
			<linearGradient id="SVGID_28_" gradientUnits="userSpaceOnUse" x1="648.1475" y1="439.5977" x2="661.0332" y2="439.5977" gradientTransform="matrix(0.9937 0.1119 -0.1119 0.9937 51.641 -68.0197)">
			<stop  offset="0" style="stop-color:#F15A24"/>
			<stop  offset="1" style="stop-color:#990000"/>
		</linearGradient>
		<path fill="url(#SVGID_28_)" d="M659.823,391.988c-0.636,42.694-29.038,54.094-6.158,101
			C638.233,440.141,665.264,427.02,659.823,391.988z"/>
		
			<linearGradient id="SVGID_29_" gradientUnits="userSpaceOnUse" x1="528.6689" y1="378.4458" x2="562.1777" y2="378.4458" gradientTransform="matrix(0.9937 0.1119 -0.1119 0.9937 51.641 -68.0197)">
			<stop  offset="0" style="stop-color:#F15A24"/>
			<stop  offset="1" style="stop-color:#990000"/>
		</linearGradient>
		<path fill="url(#SVGID_29_)" d="M552.466,428.396c-44.93-62.423,28.283-84.425,20.888-116.025
			C571.927,348.193,499.231,359.301,552.466,428.396z"/>
		
			<linearGradient id="SVGID_30_" gradientUnits="userSpaceOnUse" x1="606.2568" y1="345.8931" x2="634.8164" y2="345.8931" gradientTransform="matrix(0.9937 0.1119 -0.1119 0.9937 51.641 -68.0197)">
			<stop  offset="0" style="stop-color:#F15A24"/>
			<stop  offset="1" style="stop-color:#990000"/>
		</linearGradient>
		<path fill="url(#SVGID_30_)" d="M642.274,359.839c2.261-25.263-22.212-19.206-25.424-29.416
			C623.274,340.35,645.771,331.284,642.274,359.839z"/>
		
			<linearGradient id="SVGID_31_" gradientUnits="userSpaceOnUse" x1="564.6377" y1="272.9849" x2="588.5166" y2="272.9849" gradientTransform="matrix(0.9937 0.1119 -0.1119 0.9937 51.641 -68.0197)">
			<stop  offset="0" style="stop-color:#F15A24"/>
			<stop  offset="1" style="stop-color:#990000"/>
		</linearGradient>
		<path fill="url(#SVGID_31_)" d="M578.983,313.525c-0.355-35.284,27.686-23.47,31.926-91.318
			C601.718,287.332,573.308,273.313,578.983,313.525z"/>
		
			<linearGradient id="SVGID_32_" gradientUnits="userSpaceOnUse" x1="519.0459" y1="342.0049" x2="566.292" y2="342.0049" gradientTransform="matrix(0.9937 0.1119 -0.1119 0.9937 51.641 -68.0197)">
			<stop  offset="0" style="stop-color:#F15A24"/>
			<stop  offset="1" style="stop-color:#990000"/>
		</linearGradient>
		<path fill="url(#SVGID_32_)" d="M529.105,399.691c-19.623-85.125,41.087-77.771,54.751-133.403
			C576.94,326.855,520.171,326.198,529.105,399.691z"/>
		
			<linearGradient id="SVGID_33_" gradientUnits="userSpaceOnUse" x1="542.0996" y1="267.9111" x2="583.0156" y2="267.9111" gradientTransform="matrix(0.9937 0.1119 -0.1119 0.9937 51.641 -68.0197)">
			<stop  offset="0" style="stop-color:#F15A24"/>
			<stop  offset="1" style="stop-color:#990000"/>
		</linearGradient>
		<path fill="url(#SVGID_33_)" d="M556.93,296.455c-0.799-51.771,33.475-39.967,48.299-70.511
			C593.7,260.185,560.879,252.751,556.93,296.455z"/>
		
			<linearGradient id="SVGID_34_" gradientUnits="userSpaceOnUse" x1="594.9541" y1="293.2974" x2="620.874" y2="293.2974" gradientTransform="matrix(0.9937 0.1119 -0.1119 0.9937 51.641 -68.0197)">
			<stop  offset="0" style="stop-color:#F15A24"/>
			<stop  offset="1" style="stop-color:#990000"/>
		</linearGradient>
		<path fill="url(#SVGID_34_)" d="M619.428,316.059c0,0-12.773-28.377-5.862-50.651c0,0,23.693,11.104,21.498,33.903
			c0,0-7.356-23.414-16.245-26.168C609.934,270.388,619.428,316.059,619.428,316.059z"/>
		
			<linearGradient id="SVGID_35_" gradientUnits="userSpaceOnUse" x1="501.9248" y1="310.6392" x2="534.2158" y2="310.6392" gradientTransform="matrix(0.9937 0.1119 -0.1119 0.9937 51.641 -68.0197)">
			<stop  offset="0" style="stop-color:#F15A24"/>
			<stop  offset="1" style="stop-color:#990000"/>
		</linearGradient>
		<path fill="url(#SVGID_35_)" d="M536.728,321.903c0,0-19.573-24.197-18.56-47.492c0,0,25.746,4.711,29.419,27.318
			c0,0-13.068-20.772-22.365-21.178C515.923,280.146,536.728,321.903,536.728,321.903z"/>
		
			<linearGradient id="SVGID_36_" gradientUnits="userSpaceOnUse" x1="644.4512" y1="303.3027" x2="681.3994" y2="303.3027" gradientTransform="matrix(0.9937 0.1119 -0.1119 0.9937 51.641 -68.0197)">
			<stop  offset="0" style="stop-color:#F15A24"/>
			<stop  offset="1" style="stop-color:#990000"/>
		</linearGradient>
		<path fill="url(#SVGID_36_)" d="M664.153,251.671c0,0,31.412,40.562,22.897,111.573
			C687.051,363.244,708.501,293.169,664.153,251.671z"/>
		
			<linearGradient id="SVGID_37_" gradientUnits="userSpaceOnUse" x1="619.7461" y1="285.7041" x2="645.708" y2="285.7041" gradientTransform="matrix(0.9775 -0.2107 0.2107 0.9775 -29.8947 125.3218)">
			<stop  offset="0" style="stop-color:#F15A24"/>
			<stop  offset="1" style="stop-color:#990000"/>
		</linearGradient>
		<path fill="url(#SVGID_37_)" d="M628.086,236.817c0,0,30.012,19.978,40.239,69.183C668.325,306,666.918,254.52,628.086,236.817z"
			/>
		
			<linearGradient id="SVGID_38_" gradientUnits="userSpaceOnUse" x1="550.8721" y1="399.5376" x2="573.9775" y2="399.5376" gradientTransform="matrix(0.9937 0.1119 -0.1119 0.9937 51.641 -68.0197)">
			<stop  offset="0" style="stop-color:#F15A24"/>
			<stop  offset="1" style="stop-color:#990000"/>
		</linearGradient>
		<path fill="url(#SVGID_38_)" d="M557.693,366.602c0,0-3.249,23.872,16.887,50.74C574.58,417.342,549.408,393.889,557.693,366.602z
			"/>
		
			<linearGradient id="SVGID_39_" gradientUnits="userSpaceOnUse" x1="702.6973" y1="437.3164" x2="752.9219" y2="437.3164" gradientTransform="matrix(0.9999 0.1344 -0.0964 1.0499 43.647 -98.1155)">
			<stop  offset="0" style="stop-color:#F15A24"/>
			<stop  offset="1" style="stop-color:#990000"/>
		</linearGradient>
		<path fill="url(#SVGID_39_)" d="M718.251,301.526c49.651,125.113-38.894,164.982,21.95,314.63
			C683.213,434.453,792.247,436.781,718.251,301.526z"/>
		
			<linearGradient id="SVGID_40_" gradientUnits="userSpaceOnUse" x1="692.3418" y1="426.6729" x2="730.958" y2="426.6729" gradientTransform="matrix(0.9999 0.1344 -0.0964 1.0499 43.647 -98.1155)">
			<stop  offset="0" style="stop-color:#F15A24"/>
			<stop  offset="1" style="stop-color:#990000"/>
		</linearGradient>
		<path fill="url(#SVGID_40_)" d="M705.655,324.538c38.174,96.19-29.907,126.851,16.877,241.913
			C678.709,426.744,762.552,428.525,705.655,324.538z"/>
		
			<linearGradient id="SVGID_41_" gradientUnits="userSpaceOnUse" x1="468.7705" y1="219.0879" x2="667.7686" y2="219.0879" gradientTransform="matrix(0.9937 0.1119 -0.1119 0.9937 51.641 -68.0197)">
			<stop  offset="0" style="stop-color:#F15A24"/>
			<stop  offset="1" style="stop-color:#990000"/>
		</linearGradient>
		<path fill="url(#SVGID_41_)" d="M686.223,264.065c-37.548-148.164-143.639-2.614-188.814-101.576
			C526.435,270.58,645.389,131.176,686.223,264.065z"/>
		
			<linearGradient id="SVGID_42_" gradientUnits="userSpaceOnUse" x1="447.5977" y1="237.9756" x2="661.9941" y2="237.9756" gradientTransform="matrix(0.9937 0.1119 -0.1119 0.9937 51.641 -68.0197)">
			<stop  offset="0" style="stop-color:#F15A24"/>
			<stop  offset="1" style="stop-color:#990000"/>
		</linearGradient>
		<path fill="url(#SVGID_42_)" d="M682.07,249.333c-91.401-122.505-133.704,52.561-213.318-21.568
			C536.939,316.513,593.48,142.196,682.07,249.333z"/>
		
			<linearGradient id="SVGID_43_" gradientUnits="userSpaceOnUse" x1="628.001" y1="373.9473" x2="652.877" y2="373.9473" gradientTransform="matrix(0.9937 0.1119 -0.1119 0.9937 51.641 -68.0197)">
			<stop  offset="0" style="stop-color:#F15A24"/>
			<stop  offset="1" style="stop-color:#990000"/>
		</linearGradient>
		<path fill="url(#SVGID_43_)" d="M656.625,381.544c0.015-0.024,0.035-0.039,0.048-0.066c1.155-2.331,2.521-4.012,1.508-6.675
			c-0.37-0.972-0.582-1.706-0.39-2.758c0.108-0.604,0.35-1.178,0.321-1.803c-0.063-1.447-0.948-2.401-1.554-3.67
			c-1.481-3.089-1.683-7.228-1.663-10.586c0.018-2.335-1.321-4.296-2.935-5.855c-0.28-0.272-0.611,0.133-0.522,0.419
			c0.682,2.209,1.505,4.131,1.332,6.501c-0.18,2.492-0.782,4.932-1.025,7.414c-0.425,4.334,2.438,8.077,2.068,12.39
			c-0.108,0.039-0.192,0.122-0.2,0.272c-0.229,4.488-6.271,5.627-9.108,8.193c-0.05,0.01-0.102,0.035-0.152,0.08
			c-2.629,2.496-5.051,5.188-7.395,7.952c-0.912-2.265-1.582-4.564-0.646-6.944c0.783-1.972,2.663-3.219,4.354-4.338
			c2.351-1.552,5.555-3.268,6.062-6.326c0.077-0.437-0.611-0.514-0.687-0.074c-0.016,0.108-0.042,0.213-0.064,0.322
			c-0.063,0.035-0.119,0.084-0.15,0.168c-1.007,2.565-3.868,3.869-6.063,5.246c-2.314,1.451-4.82,2.471-6.502,4.729
			c-1.412,1.902-1.384,4.422-0.895,6.624c0.278,1.244,0.79,2.436,1.339,3.579c0.524,1.094,1.45,2.143,1.867,3.271
			c0.051,0.14,0.152,0.196,0.265,0.203c0.168,0.157,0.46,0.171,0.531-0.104c0.821-3.167,3.034-6.309,5.688-8.263
			c-0.402,2.537-0.728,5.662,0.04,8.119c0.027,0.084,0.075,0.133,0.131,0.168c0.049,0.063,0.118,0.115,0.222,0.129
			c4.081,0.618,7.608-1.748,10.195-4.694c3.406-3.873,3.47-8.566,4.017-13.435C656.671,381.656,656.646,381.596,656.625,381.544z
			 M648.972,390.639c0.267-1.192,0.229-2.443,0.646-3.614c0.021-0.059,0.029-0.115,0.017-0.164c1.564-0.545,3.131-0.961,4.465-1.926
			C653.319,387.458,651.053,389.055,648.972,390.639z"/>
		
			<linearGradient id="SVGID_44_" gradientUnits="userSpaceOnUse" x1="553.5947" y1="401.3818" x2="570.5303" y2="401.3818" gradientTransform="matrix(0.9937 0.1119 -0.1119 0.9937 51.641 -68.0197)">
			<stop  offset="0" style="stop-color:#F15A24"/>
			<stop  offset="1" style="stop-color:#990000"/>
		</linearGradient>
		<path fill="url(#SVGID_44_)" d="M574.778,381.764c-0.003,0.028-0.016,0.056-0.023,0.084c-0.029,0.018-0.06,0.039-0.08,0.077
			c-0.71,1.419-1.885,2.552-3.105,3.534c-1.155,0.926-2.536,1.881-3.979,2.29c-1.753,0.503-5.788,1.297-6.711-0.898
			c-0.042-0.104-0.14-0.119-0.224-0.084c0.031-0.125-0.131-0.272-0.278-0.182c-2.87,1.741-3.772,4.543-3.465,7.77
			c0.199,2.062,0.771,5.383,3.217,5.869c-0.024,0.021-0.04,0.056-0.046,0.098c-0.242,1.933-0.847,3.781-1.252,5.684
			c-0.039,0.188,0.217,0.24,0.312,0.111c0.034-0.008,0.065-0.028,0.094-0.066c0.878-1.256,1.873-2.426,2.534-3.813
			c0.584-1.224,0.801-2.671,0.737-4.02c-0.036-0.695-0.131-1.377-0.315-2.051c-0.177-0.647-0.563-1.241-0.823-1.859
			c-0.889-2.111,1.164-2.772,2.673-3.415c4.547-1.94,9.637-3.702,11.059-9C575.158,381.68,574.843,381.548,574.778,381.764z"/>
		
			<linearGradient id="SVGID_45_" gradientUnits="userSpaceOnUse" x1="513.4912" y1="258.6631" x2="559.2002" y2="258.6631" gradientTransform="matrix(0.9937 0.1119 -0.1119 0.9937 51.641 -68.0197)">
			<stop  offset="0" style="stop-color:#F15A24"/>
			<stop  offset="1" style="stop-color:#990000"/>
		</linearGradient>
		<path fill="url(#SVGID_45_)" d="M530.563,267.704c0,0,12.975-32.281,49.922-34.857l-11.473-3.813
			C569.013,229.033,542.669,229.956,530.563,267.704z"/>
	</g>
</g>
</svg>
