<?xml version="1.0" encoding="utf-8"?>
<!-- Generator: Adobe Illustrator 16.0.0, SVG Export Plug-In . SVG Version: 6.00 Build 0)  -->
<!DOCTYPE svg PUBLIC "-//W3C//DTD SVG 1.1//EN" "http://www.w3.org/Graphics/SVG/1.1/DTD/svg11.dtd">
<svg version="1.1" id="Layer_1" xmlns="http://www.w3.org/2000/svg" xmlns:xlink="http://www.w3.org/1999/xlink" x="0px" y="0px"
	 width="800px" height="800px" viewBox="0 0 800 800" enable-background="new 0 0 800 800" xml:space="preserve">
<g>
	<g>
		<linearGradient id="SVGID_1_" gradientUnits="userSpaceOnUse" x1="287.7764" y1="539.1035" x2="306.2168" y2="539.1035">
			<stop  offset="0" style="stop-color:#F15A24"/>
			<stop  offset="1" style="stop-color:#990000"/>
		</linearGradient>
		<path fill="url(#SVGID_1_)" d="M297.517,544.865c1.341-3.1,4.442-11.174,4.951-12.84c0.115-0.348,0.208-0.674,0.208-0.879
			c0-0.186-0.069-0.418-0.302-0.533c-0.278-0.092-0.624-0.092-0.879-0.092c-0.139,0-0.254-0.023-0.254-0.139
			c0-0.141,0.139-0.186,0.509-0.186c0.926,0,1.989,0.068,2.267,0.068c0.139,0,1.134-0.068,1.805-0.068
			c0.255,0,0.395,0.045,0.395,0.162c0,0.113-0.092,0.162-0.28,0.162c-0.16,0-0.67,0-1.11,0.277c-0.301,0.207-0.648,0.6-1.272,2.176
			c-0.255,0.646-1.414,3.422-2.59,6.27c-1.413,3.375-2.455,5.877-2.986,7.008c-0.648,1.391-0.74,1.758-0.971,1.758
			c-0.28,0-0.393-0.322-0.832-1.432l-5.672-14.184c-0.506-1.295-0.853-1.549-1.663-1.781c-0.349-0.092-0.742-0.092-0.879-0.092
			c-0.139,0-0.186-0.07-0.186-0.162c0-0.141,0.231-0.162,0.601-0.162c1.112,0,2.43,0.068,2.707,0.068
			c0.232,0,1.271-0.068,2.151-0.068c0.417,0,0.625,0.045,0.625,0.162c0,0.113-0.069,0.162-0.229,0.162
			c-0.257,0-0.672,0.023-0.879,0.115c-0.255,0.115-0.302,0.301-0.302,0.463c0,0.299,0.28,1.018,0.624,1.92L297.517,544.865z"/>
		<linearGradient id="SVGID_2_" gradientUnits="userSpaceOnUse" x1="312.2861" y1="538.8848" x2="322.5342" y2="538.8848">
			<stop  offset="0" style="stop-color:#F15A24"/>
			<stop  offset="1" style="stop-color:#990000"/>
		</linearGradient>
		<path fill="url(#SVGID_2_)" d="M314.298,536.906c0-3.609,0-4.258-0.047-4.998c-0.045-0.785-0.229-1.156-0.996-1.318
			c-0.183-0.045-0.577-0.068-0.785-0.068c-0.092,0-0.184-0.049-0.184-0.139c0-0.141,0.113-0.186,0.368-0.186
			c0.533,0,1.157,0,1.667,0.021l0.947,0.047c0.163,0,4.767,0,5.3-0.023c0.44-0.023,0.81-0.068,0.992-0.115
			c0.118-0.021,0.21-0.115,0.327-0.115c0.069,0,0.09,0.094,0.09,0.207c0,0.164-0.115,0.439-0.184,1.088
			c-0.022,0.23-0.069,1.25-0.115,1.527c-0.022,0.117-0.069,0.254-0.163,0.254c-0.138,0-0.185-0.113-0.185-0.301
			c0-0.16-0.022-0.555-0.141-0.832c-0.16-0.369-0.391-0.648-1.642-0.785c-0.393-0.047-2.914-0.07-3.168-0.07
			c-0.092,0-0.141,0.07-0.141,0.23v6.385c0,0.162,0.024,0.232,0.141,0.232c0.3,0,3.147,0,3.678-0.045
			c0.556-0.047,0.879-0.094,1.087-0.326c0.163-0.184,0.255-0.301,0.347-0.301c0.068,0,0.117,0.047,0.117,0.186
			c0,0.141-0.117,0.533-0.186,1.295c-0.045,0.463-0.092,1.318-0.092,1.482c0,0.184,0,0.439-0.161,0.439
			c-0.117,0-0.162-0.094-0.162-0.207c0-0.232,0-0.463-0.094-0.764c-0.092-0.326-0.301-0.719-1.204-0.811
			c-0.624-0.068-2.915-0.115-3.309-0.115c-0.113,0-0.162,0.068-0.162,0.16v2.037c0,0.787-0.021,3.469,0,3.955
			c0.071,1.598,0.418,1.898,2.686,1.898c0.603,0,1.619,0,2.22-0.254c0.603-0.254,0.879-0.719,1.041-1.666
			c0.047-0.254,0.092-0.348,0.21-0.348c0.138,0,0.138,0.186,0.138,0.348c0,0.184-0.185,1.758-0.301,2.244
			c-0.162,0.602-0.346,0.602-1.25,0.602c-1.734,0-3.007-0.047-3.909-0.07c-0.901-0.045-1.458-0.07-1.805-0.07
			c-0.045,0-0.438,0-0.924,0.025c-0.462,0-0.996,0.045-1.341,0.045c-0.255,0-0.372-0.045-0.372-0.186
			c0-0.068,0.047-0.139,0.184-0.139c0.21,0,0.488-0.047,0.695-0.092c0.464-0.092,0.579-0.602,0.672-1.273
			c0.115-0.973,0.115-2.799,0.115-5.02V536.906z"/>
		<linearGradient id="SVGID_3_" gradientUnits="userSpaceOnUse" x1="329.5049" y1="538.7803" x2="344.1724" y2="538.7803">
			<stop  offset="0" style="stop-color:#F15A24"/>
			<stop  offset="1" style="stop-color:#990000"/>
		</linearGradient>
		<path fill="url(#SVGID_3_)" d="M337.974,540.979c0,2.221,0,4.047,0.115,5.02c0.07,0.672,0.208,1.182,0.903,1.273
			c0.323,0.045,0.832,0.092,1.042,0.092c0.139,0,0.183,0.07,0.183,0.139c0,0.115-0.115,0.186-0.37,0.186
			c-1.27,0-2.729-0.07-2.847-0.07c-0.113,0-1.571,0.07-2.266,0.07c-0.253,0-0.37-0.045-0.37-0.186c0-0.068,0.047-0.139,0.185-0.139
			c0.208,0,0.488-0.047,0.695-0.092c0.463-0.092,0.578-0.602,0.672-1.273c0.115-0.973,0.115-2.799,0.115-5.02v-9.787l-3.424,0.045
			c-1.434,0.025-1.989,0.188-2.361,0.742c-0.254,0.393-0.323,0.555-0.395,0.717c-0.068,0.186-0.137,0.232-0.229,0.232
			c-0.071,0-0.116-0.07-0.116-0.209c0-0.232,0.464-2.221,0.511-2.406c0.045-0.139,0.137-0.439,0.229-0.439
			c0.163,0,0.393,0.232,1.02,0.277c0.67,0.068,1.55,0.115,1.828,0.115h8.676c0.74,0,1.273-0.047,1.642-0.115
			c0.347-0.045,0.556-0.117,0.648-0.117c0.115,0,0.115,0.141,0.115,0.279c0,0.693-0.068,2.291-0.068,2.545
			c0,0.209-0.069,0.301-0.162,0.301c-0.116,0-0.162-0.07-0.186-0.393l-0.022-0.254c-0.069-0.695-0.624-1.227-2.846-1.275
			l-2.915-0.045V540.979z"/>
		<linearGradient id="SVGID_4_" gradientUnits="userSpaceOnUse" x1="351.6538" y1="538.8848" x2="361.9033" y2="538.8848">
			<stop  offset="0" style="stop-color:#F15A24"/>
			<stop  offset="1" style="stop-color:#990000"/>
		</linearGradient>
		<path fill="url(#SVGID_4_)" d="M353.666,536.906c0-3.609,0-4.258-0.043-4.998c-0.045-0.785-0.233-1.156-0.997-1.318
			c-0.183-0.045-0.579-0.068-0.785-0.068c-0.094,0-0.186-0.049-0.186-0.139c0-0.141,0.116-0.186,0.37-0.186
			c0.533,0,1.157,0,1.666,0.021l0.949,0.047c0.161,0,4.767,0,5.298-0.023c0.441-0.023,0.81-0.068,0.995-0.115
			c0.115-0.021,0.208-0.115,0.325-0.115c0.068,0,0.092,0.094,0.092,0.207c0,0.164-0.116,0.439-0.188,1.088
			c-0.021,0.23-0.068,1.25-0.115,1.527c-0.022,0.117-0.068,0.254-0.162,0.254c-0.139,0-0.184-0.113-0.184-0.301
			c0-0.16-0.022-0.555-0.141-0.832c-0.162-0.369-0.391-0.648-1.642-0.785c-0.393-0.047-2.915-0.07-3.17-0.07
			c-0.092,0-0.139,0.07-0.139,0.23v6.385c0,0.162,0.024,0.232,0.139,0.232c0.302,0,3.148,0,3.678-0.045
			c0.558-0.047,0.879-0.094,1.087-0.326c0.165-0.184,0.255-0.301,0.348-0.301c0.071,0,0.118,0.047,0.118,0.186
			c0,0.141-0.118,0.533-0.186,1.295c-0.047,0.463-0.092,1.318-0.092,1.482c0,0.184,0,0.439-0.163,0.439
			c-0.115,0-0.16-0.094-0.16-0.207c0-0.232,0-0.463-0.094-0.764c-0.094-0.326-0.3-0.719-1.202-0.811
			c-0.627-0.068-2.917-0.115-3.309-0.115c-0.117,0-0.164,0.068-0.164,0.16v2.037c0,0.787-0.022,3.469,0,3.955
			c0.071,1.598,0.417,1.898,2.686,1.898c0.601,0,1.619,0,2.218-0.254c0.603-0.254,0.879-0.719,1.044-1.666
			c0.043-0.254,0.094-0.348,0.207-0.348c0.139,0,0.139,0.186,0.139,0.348c0,0.184-0.184,1.758-0.302,2.244
			c-0.16,0.602-0.344,0.602-1.249,0.602c-1.734,0-3.005-0.047-3.91-0.07c-0.902-0.045-1.456-0.07-1.803-0.07
			c-0.047,0-0.44,0-0.926,0.025c-0.462,0-0.994,0.045-1.341,0.045c-0.254,0-0.37-0.045-0.37-0.186c0-0.068,0.045-0.139,0.186-0.139
			c0.208,0,0.486-0.047,0.692-0.092c0.465-0.092,0.578-0.602,0.674-1.273c0.113-0.973,0.113-2.799,0.113-5.02V536.906z"/>
		<linearGradient id="SVGID_5_" gradientUnits="userSpaceOnUse" x1="370.3999" y1="538.9424" x2="387.8901" y2="538.9424">
			<stop  offset="0" style="stop-color:#F15A24"/>
			<stop  offset="1" style="stop-color:#990000"/>
		</linearGradient>
		<path fill="url(#SVGID_5_)" d="M372.413,536.906c0-3.609,0-4.258-0.045-4.998c-0.047-0.785-0.233-1.156-0.997-1.318
			c-0.184-0.045-0.579-0.068-0.786-0.068c-0.094,0-0.186-0.049-0.186-0.139c0-0.141,0.116-0.186,0.372-0.186
			c1.041,0,2.498,0.068,2.615,0.068c0.253,0,2.012-0.068,2.729-0.068c1.458,0,3.009,0.137,4.233,1.018
			c0.581,0.418,1.597,1.551,1.597,3.146c0,1.711-0.716,3.424-2.799,5.346c1.896,2.428,3.469,4.486,4.812,5.924
			c1.25,1.316,2.243,1.57,2.823,1.664c0.438,0.068,0.761,0.068,0.9,0.068c0.118,0,0.208,0.07,0.208,0.139
			c0,0.141-0.139,0.186-0.556,0.186h-1.642c-1.296,0-1.874-0.117-2.475-0.439c-0.994-0.531-1.804-1.666-3.122-3.402
			c-0.971-1.271-2.059-2.822-2.522-3.424c-0.094-0.092-0.162-0.139-0.302-0.139l-2.844-0.045c-0.118,0-0.164,0.07-0.164,0.184v0.557
			c0,2.221,0,4.047,0.118,5.02c0.068,0.672,0.207,1.182,0.902,1.273c0.323,0.045,0.832,0.092,1.041,0.092
			c0.139,0,0.186,0.07,0.186,0.139c0,0.115-0.118,0.186-0.372,0.186c-1.271,0-2.729-0.07-2.844-0.07c-0.024,0-1.482,0.07-2.177,0.07
			c-0.253,0-0.372-0.045-0.372-0.186c0-0.068,0.047-0.139,0.188-0.139c0.208,0,0.485-0.047,0.693-0.092
			c0.462-0.092,0.58-0.602,0.672-1.273c0.115-0.973,0.115-2.799,0.115-5.02V536.906z M374.263,538.92
			c0,0.115,0.045,0.209,0.164,0.277c0.346,0.209,1.409,0.371,2.43,0.371c0.554,0,1.202-0.07,1.735-0.439
			c0.807-0.557,1.411-1.807,1.411-3.566c0-2.891-1.53-4.625-4.004-4.625c-0.693,0-1.317,0.068-1.55,0.139
			c-0.116,0.047-0.186,0.139-0.186,0.275V538.92z"/>
		<linearGradient id="SVGID_6_" gradientUnits="userSpaceOnUse" x1="392.7588" y1="538.9424" x2="398.6812" y2="538.9424">
			<stop  offset="0" style="stop-color:#F15A24"/>
			<stop  offset="1" style="stop-color:#990000"/>
		</linearGradient>
		<path fill="url(#SVGID_6_)" d="M396.437,540.979c0,2.221,0,4.047,0.118,5.02c0.068,0.672,0.207,1.182,0.9,1.273
			c0.327,0.045,0.835,0.092,1.042,0.092c0.137,0,0.184,0.07,0.184,0.139c0,0.115-0.115,0.186-0.37,0.186
			c-1.271,0-2.729-0.07-2.846-0.07c-0.115,0-1.574,0.07-2.265,0.07c-0.255,0-0.372-0.045-0.372-0.186
			c0-0.068,0.045-0.139,0.184-0.139c0.208,0,0.488-0.047,0.695-0.092c0.464-0.092,0.578-0.602,0.672-1.273
			c0.115-0.973,0.115-2.799,0.115-5.02v-4.072c0-3.609,0-4.258-0.047-4.998c-0.045-0.785-0.276-1.18-0.787-1.295
			c-0.254-0.068-0.554-0.092-0.716-0.092c-0.094,0-0.186-0.049-0.186-0.139c0-0.141,0.115-0.186,0.37-0.186
			c0.763,0,2.222,0.068,2.336,0.068c0.117,0,1.574-0.068,2.269-0.068c0.255,0,0.368,0.045,0.368,0.186
			c0,0.09-0.092,0.139-0.184,0.139c-0.162,0-0.301,0.023-0.579,0.068c-0.625,0.115-0.81,0.51-0.856,1.318
			c-0.047,0.74-0.047,1.389-0.047,4.998V540.979z"/>
		<linearGradient id="SVGID_7_" gradientUnits="userSpaceOnUse" x1="406.7139" y1="538.8623" x2="425.3159" y2="538.8623">
			<stop  offset="0" style="stop-color:#F15A24"/>
			<stop  offset="1" style="stop-color:#990000"/>
		</linearGradient>
		<path fill="url(#SVGID_7_)" d="M409.931,544.541c0.047,1.898,0.278,2.498,0.901,2.684c0.441,0.115,0.949,0.139,1.159,0.139
			c0.113,0,0.184,0.047,0.184,0.139c0,0.141-0.141,0.186-0.415,0.186c-1.32,0-2.246-0.07-2.455-0.07s-1.18,0.07-2.222,0.07
			c-0.229,0-0.37-0.023-0.37-0.186c0-0.092,0.069-0.139,0.186-0.139c0.184,0,0.603-0.023,0.95-0.139
			c0.577-0.16,0.693-0.832,0.693-2.938l0.021-13.258c0-0.902,0.073-1.156,0.255-1.156c0.186,0,0.58,0.51,0.811,0.74
			c0.348,0.393,3.794,4.119,7.357,7.936c2.29,2.453,4.813,5.275,5.552,6.039l-0.253-11.754c-0.023-1.504-0.188-2.012-0.903-2.197
			c-0.417-0.092-0.95-0.115-1.133-0.115c-0.165,0-0.186-0.07-0.186-0.162c0-0.141,0.186-0.162,0.464-0.162
			c1.039,0,2.151,0.068,2.406,0.068c0.253,0,1.016-0.068,1.966-0.068c0.254,0,0.416,0.021,0.416,0.162
			c0,0.092-0.092,0.162-0.254,0.162c-0.115,0-0.278,0-0.556,0.068c-0.765,0.162-0.856,0.672-0.856,2.059l-0.045,13.559
			c0,1.529-0.045,1.645-0.21,1.645c-0.183,0-0.46-0.256-1.686-1.482c-0.257-0.23-3.587-3.633-6.042-6.27
			c-2.684-2.893-5.297-5.807-6.037-6.643L409.931,544.541z"/>
		<linearGradient id="SVGID_8_" gradientUnits="userSpaceOnUse" x1="431.1104" y1="538.7803" x2="448.7383" y2="538.7803">
			<stop  offset="0" style="stop-color:#F15A24"/>
			<stop  offset="1" style="stop-color:#990000"/>
		</linearGradient>
		<path fill="url(#SVGID_8_)" d="M439.185,530.775c0.276-0.764,0.368-0.902,0.509-0.902c0.136,0,0.231,0.115,0.507,0.832
			c0.348,0.881,3.98,10.436,5.393,13.953c0.832,2.059,1.502,2.428,1.989,2.566c0.348,0.115,0.693,0.139,0.926,0.139
			c0.136,0,0.229,0.023,0.229,0.139c0,0.141-0.207,0.186-0.462,0.186c-0.346,0-2.036,0-3.631-0.045
			c-0.441-0.025-0.696-0.025-0.696-0.162c0-0.094,0.071-0.141,0.163-0.164c0.139-0.045,0.279-0.252,0.139-0.625l-2.152-5.689
			c-0.047-0.092-0.092-0.141-0.208-0.141h-4.974c-0.117,0-0.185,0.072-0.231,0.186l-1.388,4.094
			c-0.208,0.58-0.323,1.137-0.323,1.551c0,0.465,0.484,0.672,0.877,0.672h0.231c0.163,0,0.232,0.047,0.232,0.139
			c0,0.141-0.139,0.186-0.347,0.186c-0.556,0-1.551-0.07-1.805-0.07c-0.255,0-1.525,0.07-2.613,0.07c-0.3,0-0.439-0.045-0.439-0.186
			c0-0.092,0.092-0.139,0.208-0.139c0.16,0,0.485-0.023,0.67-0.047c1.063-0.137,1.527-1.018,1.942-2.176L439.185,530.775z
			 M441.589,540.029c0.118,0,0.118-0.068,0.094-0.162l-2.198-6.246c-0.116-0.346-0.232-0.346-0.347,0l-2.036,6.246
			c-0.047,0.115,0,0.162,0.069,0.162H441.589z"/>
		<linearGradient id="SVGID_9_" gradientUnits="userSpaceOnUse" x1="454.6699" y1="538.9424" x2="472.1621" y2="538.9424">
			<stop  offset="0" style="stop-color:#F15A24"/>
			<stop  offset="1" style="stop-color:#990000"/>
		</linearGradient>
		<path fill="url(#SVGID_9_)" d="M456.682,536.906c0-3.609,0-4.258-0.045-4.998c-0.047-0.785-0.231-1.156-0.996-1.318
			c-0.184-0.045-0.579-0.068-0.785-0.068c-0.094,0-0.186-0.049-0.186-0.139c0-0.141,0.117-0.186,0.37-0.186
			c1.041,0,2.5,0.068,2.615,0.068c0.253,0,2.012-0.068,2.729-0.068c1.458,0,3.01,0.137,4.234,1.018
			c0.58,0.418,1.596,1.551,1.596,3.146c0,1.711-0.716,3.424-2.799,5.346c1.897,2.428,3.471,4.486,4.813,5.924
			c1.249,1.316,2.243,1.57,2.823,1.664c0.439,0.068,0.764,0.068,0.902,0.068c0.116,0,0.21,0.07,0.21,0.139
			c0,0.141-0.139,0.186-0.558,0.186h-1.642c-1.296,0-1.875-0.117-2.476-0.439c-0.994-0.531-1.805-1.666-3.124-3.402
			c-0.97-1.271-2.059-2.822-2.522-3.424c-0.092-0.092-0.162-0.139-0.3-0.139l-2.846-0.045c-0.117,0-0.163,0.07-0.163,0.184v0.557
			c0,2.221,0,4.047,0.118,5.02c0.069,0.672,0.208,1.182,0.902,1.273c0.325,0.045,0.832,0.092,1.041,0.092
			c0.141,0,0.186,0.07,0.186,0.139c0,0.115-0.117,0.186-0.37,0.186c-1.273,0-2.731-0.07-2.846-0.07c-0.022,0-1.482,0.07-2.175,0.07
			c-0.254,0-0.37-0.045-0.37-0.186c0-0.068,0.045-0.139,0.184-0.139c0.208,0,0.486-0.047,0.693-0.092
			c0.465-0.092,0.578-0.602,0.674-1.273c0.113-0.973,0.113-2.799,0.113-5.02V536.906z M458.532,538.92
			c0,0.115,0.046,0.209,0.163,0.277c0.347,0.209,1.411,0.371,2.43,0.371c0.554,0,1.202-0.07,1.735-0.439
			c0.81-0.557,1.411-1.807,1.411-3.566c0-2.891-1.527-4.625-4.002-4.625c-0.695,0-1.318,0.068-1.55,0.139
			c-0.116,0.047-0.187,0.139-0.187,0.275V538.92z"/>
		<linearGradient id="SVGID_10_" gradientUnits="userSpaceOnUse" x1="473.4663" y1="538.9424" x2="490.1699" y2="538.9424">
			<stop  offset="0" style="stop-color:#F15A24"/>
			<stop  offset="1" style="stop-color:#990000"/>
		</linearGradient>
		<path fill="url(#SVGID_10_)" d="M480.869,541.693c0-1.246-0.232-1.758-0.532-2.428c-0.163-0.369-3.263-5.461-4.072-6.662
			c-0.579-0.857-1.155-1.434-1.574-1.711c-0.346-0.234-0.787-0.371-0.996-0.371c-0.115,0-0.229-0.049-0.229-0.162
			c0-0.094,0.092-0.162,0.302-0.162c0.437,0,2.173,0.068,2.288,0.068c0.162,0,1.041-0.068,1.944-0.068c0.253,0,0.3,0.068,0.3,0.162
			c0,0.092-0.141,0.113-0.347,0.207c-0.186,0.092-0.301,0.232-0.301,0.416c0,0.279,0.115,0.555,0.301,0.902
			c0.37,0.672,3.841,6.641,4.257,7.313c0.439-0.973,3.377-6.039,3.84-6.803c0.301-0.486,0.393-0.877,0.393-1.18
			c0-0.322-0.092-0.578-0.369-0.648c-0.209-0.068-0.347-0.115-0.347-0.232c0-0.092,0.138-0.137,0.37-0.137
			c0.602,0,1.341,0.068,1.527,0.068c0.141,0,1.803-0.068,2.242-0.068c0.165,0,0.303,0.045,0.303,0.137
			c0,0.117-0.115,0.188-0.303,0.188c-0.254,0-0.693,0.092-1.063,0.324c-0.463,0.277-0.719,0.553-1.227,1.18
			c-0.764,0.926-4.003,6.361-4.42,7.355c-0.348,0.834-0.348,1.553-0.348,2.313v1.99c0,0.371,0,1.342,0.071,2.314
			c0.046,0.672,0.255,1.182,0.95,1.273c0.321,0.045,0.83,0.092,1.037,0.092c0.141,0,0.188,0.07,0.188,0.139
			c0,0.115-0.116,0.186-0.369,0.186c-1.273,0-2.731-0.07-2.848-0.07c-0.117,0-1.57,0.07-2.268,0.07c-0.253,0-0.37-0.045-0.37-0.186
			c0-0.068,0.047-0.139,0.186-0.139c0.207,0,0.485-0.047,0.694-0.092c0.461-0.092,0.67-0.602,0.715-1.273
			c0.072-0.973,0.072-1.943,0.072-2.314V541.693z"/>
		<linearGradient id="SVGID_11_" gradientUnits="userSpaceOnUse" x1="508.3887" y1="538.9414" x2="517.2969" y2="538.9414">
			<stop  offset="0" style="stop-color:#F15A24"/>
			<stop  offset="1" style="stop-color:#990000"/>
		</linearGradient>
		<path fill="url(#SVGID_11_)" d="M508.736,547.387c-0.323-0.162-0.348-0.254-0.348-0.879c0-1.156,0.094-2.082,0.116-2.453
			c0.022-0.256,0.069-0.371,0.187-0.371c0.137,0,0.159,0.07,0.159,0.256c0,0.207,0,0.533,0.073,0.855
			c0.346,1.713,1.871,2.361,3.42,2.361c2.223,0,3.311-1.598,3.311-3.076c0-1.6-0.672-2.521-2.662-4.166l-1.042-0.857
			c-2.452-2.01-3.006-3.447-3.006-5.02c0-2.477,1.851-4.164,4.788-4.164c0.903,0,1.572,0.094,2.152,0.232
			c0.439,0.092,0.625,0.113,0.81,0.113s0.233,0.047,0.233,0.164c0,0.115-0.094,0.879-0.094,2.451c0,0.371-0.047,0.533-0.162,0.533
			c-0.139,0-0.162-0.117-0.186-0.301c-0.023-0.279-0.162-0.902-0.301-1.158s-0.764-1.227-2.891-1.227
			c-1.599,0-2.848,0.996-2.848,2.686c0,1.318,0.603,2.148,2.822,3.887l0.648,0.508c2.73,2.152,3.379,3.588,3.379,5.438
			c0,0.947-0.369,2.705-1.968,3.84c-0.994,0.697-2.245,0.971-3.493,0.971C510.75,548.01,509.684,547.852,508.736,547.387z"/>
		<linearGradient id="SVGID_12_" gradientUnits="userSpaceOnUse" x1="526.0244" y1="538.8848" x2="536.2754" y2="538.8848">
			<stop  offset="0" style="stop-color:#F15A24"/>
			<stop  offset="1" style="stop-color:#990000"/>
		</linearGradient>
		<path fill="url(#SVGID_12_)" d="M528.039,536.906c0-3.609,0-4.258-0.047-4.998c-0.045-0.785-0.232-1.156-0.995-1.318
			c-0.185-0.045-0.58-0.068-0.786-0.068c-0.094,0-0.187-0.049-0.187-0.139c0-0.141,0.118-0.186,0.37-0.186
			c0.533,0,1.156,0,1.668,0.021l0.948,0.047c0.161,0,4.765,0,5.298-0.023c0.439-0.023,0.809-0.068,0.994-0.115
			c0.115-0.021,0.209-0.115,0.324-0.115c0.07,0,0.093,0.094,0.093,0.207c0,0.164-0.116,0.439-0.187,1.088
			c-0.021,0.23-0.068,1.25-0.115,1.527c-0.021,0.117-0.068,0.254-0.162,0.254c-0.139,0-0.184-0.113-0.184-0.301
			c0-0.16-0.023-0.555-0.14-0.832c-0.163-0.369-0.393-0.648-1.644-0.785c-0.395-0.047-2.913-0.07-3.168-0.07
			c-0.092,0-0.139,0.07-0.139,0.23v6.385c0,0.162,0.021,0.232,0.139,0.232c0.301,0,3.146,0,3.68-0.045
			c0.554-0.047,0.877-0.094,1.087-0.326c0.161-0.184,0.252-0.301,0.346-0.301c0.069,0,0.116,0.047,0.116,0.186
			c0,0.141-0.116,0.533-0.186,1.295c-0.047,0.463-0.092,1.318-0.092,1.482c0,0.184,0,0.439-0.164,0.439
			c-0.114,0-0.16-0.094-0.16-0.207c0-0.232,0-0.463-0.094-0.764c-0.094-0.326-0.3-0.719-1.201-0.811
			c-0.626-0.068-2.917-0.115-3.31-0.115c-0.114,0-0.161,0.068-0.161,0.16v2.037c0,0.787-0.025,3.469,0,3.955
			c0.068,1.598,0.416,1.898,2.686,1.898c0.6,0,1.617,0,2.22-0.254c0.601-0.254,0.878-0.719,1.04-1.666
			c0.047-0.254,0.094-0.348,0.207-0.348c0.141,0,0.141,0.186,0.141,0.348c0,0.184-0.186,1.758-0.301,2.244
			c-0.162,0.602-0.348,0.602-1.252,0.602c-1.732,0-3.006-0.047-3.91-0.07c-0.9-0.045-1.456-0.07-1.802-0.07
			c-0.049,0-0.441,0-0.927,0.025c-0.463,0-0.994,0.045-1.342,0.045c-0.252,0-0.369-0.045-0.369-0.186
			c0-0.068,0.044-0.139,0.185-0.139c0.208,0,0.485-0.047,0.694-0.092c0.463-0.092,0.578-0.602,0.672-1.273
			c0.115-0.973,0.115-2.799,0.115-5.02V536.906z"/>
		<linearGradient id="SVGID_13_" gradientUnits="userSpaceOnUse" x1="544.7715" y1="538.9424" x2="562.2607" y2="538.9424">
			<stop  offset="0" style="stop-color:#F15A24"/>
			<stop  offset="1" style="stop-color:#990000"/>
		</linearGradient>
		<path fill="url(#SVGID_13_)" d="M546.783,536.906c0-3.609,0-4.258-0.045-4.998c-0.047-0.785-0.232-1.156-0.995-1.318
			c-0.187-0.045-0.579-0.068-0.787-0.068c-0.092,0-0.185-0.049-0.185-0.139c0-0.141,0.117-0.186,0.371-0.186
			c1.04,0,2.498,0.068,2.613,0.068c0.256,0,2.014-0.068,2.73-0.068c1.457,0,3.007,0.137,4.234,1.018
			c0.578,0.418,1.597,1.551,1.597,3.146c0,1.711-0.718,3.424-2.798,5.346c1.893,2.428,3.467,4.486,4.81,5.924
			c1.249,1.316,2.245,1.57,2.823,1.664c0.439,0.068,0.763,0.068,0.9,0.068c0.117,0,0.208,0.07,0.208,0.139
			c0,0.141-0.136,0.186-0.554,0.186h-1.643c-1.295,0-1.874-0.117-2.477-0.439c-0.994-0.531-1.804-1.666-3.122-3.402
			c-0.973-1.271-2.061-2.822-2.522-3.424c-0.092-0.092-0.162-0.139-0.303-0.139l-2.844-0.045c-0.114,0-0.161,0.07-0.161,0.184v0.557
			c0,2.221,0,4.047,0.116,5.02c0.069,0.672,0.207,1.182,0.902,1.273c0.324,0.045,0.832,0.092,1.04,0.092
			c0.139,0,0.188,0.07,0.188,0.139c0,0.115-0.12,0.186-0.374,0.186c-1.273,0-2.729-0.07-2.846-0.07c-0.021,0-1.479,0.07-2.173,0.07
			c-0.255,0-0.372-0.045-0.372-0.186c0-0.068,0.047-0.139,0.187-0.139c0.206,0,0.487-0.047,0.691-0.092
			c0.466-0.092,0.582-0.602,0.675-1.273c0.113-0.973,0.113-2.799,0.113-5.02V536.906z M548.636,538.92
			c0,0.115,0.047,0.209,0.161,0.277c0.346,0.209,1.409,0.371,2.431,0.371c0.554,0,1.202-0.07,1.735-0.439
			c0.809-0.557,1.409-1.807,1.409-3.566c0-2.891-1.528-4.625-4.001-4.625c-0.693,0-1.318,0.068-1.55,0.139
			c-0.118,0.047-0.186,0.139-0.186,0.275V538.92z"/>
		<linearGradient id="SVGID_14_" gradientUnits="userSpaceOnUse" x1="563.5664" y1="539.1035" x2="582.0068" y2="539.1035">
			<stop  offset="0" style="stop-color:#F15A24"/>
			<stop  offset="1" style="stop-color:#990000"/>
		</linearGradient>
		<path fill="url(#SVGID_14_)" d="M573.309,544.865c1.342-3.1,4.441-11.174,4.949-12.84c0.117-0.348,0.209-0.674,0.209-0.879
			c0-0.186-0.068-0.418-0.301-0.533c-0.277-0.092-0.625-0.092-0.879-0.092c-0.138,0-0.256-0.023-0.256-0.139
			c0-0.141,0.139-0.186,0.51-0.186c0.926,0,1.988,0.068,2.268,0.068c0.14,0,1.135-0.068,1.805-0.068
			c0.255,0,0.394,0.045,0.394,0.162c0,0.113-0.094,0.162-0.278,0.162c-0.161,0-0.672,0-1.111,0.277
			c-0.301,0.207-0.646,0.6-1.27,2.176c-0.258,0.646-1.414,3.422-2.592,6.27c-1.413,3.375-2.453,5.877-2.986,7.008
			c-0.646,1.391-0.74,1.758-0.971,1.758c-0.279,0-0.394-0.322-0.833-1.432l-5.669-14.184c-0.51-1.295-0.855-1.549-1.664-1.781
			c-0.35-0.092-0.742-0.092-0.881-0.092c-0.141,0-0.186-0.07-0.186-0.162c0-0.141,0.232-0.162,0.602-0.162
			c1.111,0,2.43,0.068,2.706,0.068c0.233,0,1.273-0.068,2.151-0.068c0.418,0,0.627,0.045,0.627,0.162c0,0.113-0.07,0.162-0.23,0.162
			c-0.255,0-0.674,0.023-0.881,0.115c-0.253,0.115-0.3,0.301-0.3,0.463c0,0.299,0.278,1.018,0.624,1.92L573.309,544.865z"/>
		<linearGradient id="SVGID_15_" gradientUnits="userSpaceOnUse" x1="588.3535" y1="538.9424" x2="594.2754" y2="538.9424">
			<stop  offset="0" style="stop-color:#F15A24"/>
			<stop  offset="1" style="stop-color:#990000"/>
		</linearGradient>
		<path fill="url(#SVGID_15_)" d="M592.031,540.979c0,2.221,0,4.047,0.117,5.02c0.068,0.672,0.209,1.182,0.902,1.273
			c0.322,0.045,0.833,0.092,1.039,0.092c0.141,0,0.186,0.07,0.186,0.139c0,0.115-0.113,0.186-0.369,0.186
			c-1.273,0-2.73-0.07-2.846-0.07s-1.574,0.07-2.268,0.07c-0.254,0-0.371-0.045-0.371-0.186c0-0.068,0.047-0.139,0.186-0.139
			c0.209,0,0.486-0.047,0.693-0.092c0.464-0.092,0.578-0.602,0.672-1.273c0.117-0.973,0.117-2.799,0.117-5.02v-4.072
			c0-3.609,0-4.258-0.047-4.998c-0.047-0.785-0.278-1.18-0.787-1.295c-0.256-0.068-0.557-0.092-0.717-0.092
			c-0.092,0-0.186-0.049-0.186-0.139c0-0.141,0.115-0.186,0.369-0.186c0.764,0,2.223,0.068,2.338,0.068s1.572-0.068,2.268-0.068
			c0.255,0,0.369,0.045,0.369,0.186c0,0.09-0.092,0.139-0.186,0.139c-0.16,0-0.301,0.023-0.576,0.068
			c-0.625,0.115-0.812,0.51-0.857,1.318c-0.047,0.74-0.047,1.389-0.047,4.998V540.979z"/>
		<linearGradient id="SVGID_16_" gradientUnits="userSpaceOnUse" x1="601.916" y1="538.9414" x2="617.626" y2="538.9414">
			<stop  offset="0" style="stop-color:#F15A24"/>
			<stop  offset="1" style="stop-color:#990000"/>
		</linearGradient>
		<path fill="url(#SVGID_16_)" d="M604.713,545.512c-2.24-2.014-2.797-4.65-2.797-6.848c0-1.551,0.533-4.258,2.594-6.316
			c1.385-1.387,3.492-2.475,7.057-2.475c0.923,0,2.219,0.068,3.352,0.277c0.881,0.162,1.621,0.301,2.36,0.348
			c0.255,0.023,0.301,0.115,0.301,0.254c0,0.186-0.067,0.463-0.116,1.295c-0.047,0.764-0.047,2.037-0.068,2.383
			c-0.022,0.348-0.067,0.488-0.208,0.488c-0.161,0-0.187-0.164-0.187-0.488c0-0.9-0.367-1.852-0.969-2.357
			c-0.812-0.695-2.594-1.32-4.63-1.32c-3.075,0-4.511,0.9-5.321,1.689c-1.688,1.619-2.081,3.678-2.081,6.039
			c0,4.42,3.401,8.467,8.351,8.467c1.736,0,3.104-0.209,4.027-1.156c0.484-0.51,0.785-1.527,0.856-1.945
			c0.045-0.254,0.094-0.348,0.229-0.348c0.116,0,0.163,0.164,0.163,0.348c0,0.164-0.278,2.176-0.509,2.963
			c-0.139,0.439-0.185,0.486-0.602,0.672c-0.926,0.371-2.686,0.529-4.166,0.529C608.883,548.01,606.545,547.156,604.713,545.512z"/>
		<linearGradient id="SVGID_17_" gradientUnits="userSpaceOnUse" x1="625.8027" y1="538.8848" x2="636.0508" y2="538.8848">
			<stop  offset="0" style="stop-color:#F15A24"/>
			<stop  offset="1" style="stop-color:#990000"/>
		</linearGradient>
		<path fill="url(#SVGID_17_)" d="M627.814,536.906c0-3.609,0-4.258-0.045-4.998c-0.047-0.785-0.233-1.156-0.996-1.318
			c-0.186-0.045-0.578-0.068-0.789-0.068c-0.092,0-0.182-0.049-0.182-0.139c0-0.141,0.114-0.186,0.368-0.186
			c0.532,0,1.155,0,1.666,0.021l0.948,0.047c0.164,0,4.766,0,5.297-0.023c0.443-0.023,0.812-0.068,0.996-0.115
			c0.115-0.021,0.208-0.115,0.324-0.115c0.068,0,0.094,0.094,0.094,0.207c0,0.164-0.118,0.439-0.186,1.088
			c-0.024,0.23-0.07,1.25-0.117,1.527c-0.023,0.117-0.067,0.254-0.162,0.254c-0.138,0-0.184-0.113-0.184-0.301
			c0-0.16-0.021-0.555-0.141-0.832c-0.16-0.369-0.393-0.648-1.641-0.785c-0.395-0.047-2.916-0.07-3.171-0.07
			c-0.093,0-0.14,0.07-0.14,0.23v6.385c0,0.162,0.026,0.232,0.14,0.232c0.3,0,3.147,0,3.679-0.045
			c0.557-0.047,0.879-0.094,1.088-0.326c0.164-0.184,0.256-0.301,0.348-0.301c0.068,0,0.116,0.047,0.116,0.186
			c0,0.141-0.116,0.533-0.187,1.295c-0.046,0.463-0.092,1.318-0.092,1.482c0,0.184,0,0.439-0.162,0.439
			c-0.117,0-0.16-0.094-0.16-0.207c0-0.232,0-0.463-0.093-0.764c-0.094-0.326-0.302-0.719-1.205-0.811
			c-0.624-0.068-2.915-0.115-3.31-0.115c-0.115,0-0.162,0.068-0.162,0.16v2.037c0,0.787-0.021,3.469,0,3.955
			c0.072,1.598,0.418,1.898,2.685,1.898c0.603,0,1.62,0,2.222-0.254s0.879-0.719,1.041-1.666c0.047-0.254,0.094-0.348,0.207-0.348
			c0.141,0,0.141,0.186,0.141,0.348c0,0.184-0.187,1.758-0.301,2.244c-0.162,0.602-0.348,0.602-1.25,0.602
			c-1.734,0-3.008-0.047-3.91-0.07c-0.901-0.045-1.457-0.07-1.805-0.07c-0.045,0-0.438,0-0.926,0.025
			c-0.461,0-0.994,0.045-1.34,0.045c-0.257,0-0.373-0.045-0.373-0.186c0-0.068,0.049-0.139,0.188-0.139
			c0.209,0,0.486-0.047,0.691-0.092c0.465-0.092,0.58-0.602,0.674-1.273c0.115-0.973,0.115-2.799,0.115-5.02V536.906z"/>
		<linearGradient id="SVGID_18_" gradientUnits="userSpaceOnUse" x1="644.7324" y1="538.9414" x2="653.6406" y2="538.9414">
			<stop  offset="0" style="stop-color:#F15A24"/>
			<stop  offset="1" style="stop-color:#990000"/>
		</linearGradient>
		<path fill="url(#SVGID_18_)" d="M645.082,547.387c-0.325-0.162-0.35-0.254-0.35-0.879c0-1.156,0.094-2.082,0.116-2.453
			c0.022-0.256,0.069-0.371,0.187-0.371c0.139,0,0.16,0.07,0.16,0.256c0,0.207,0,0.533,0.072,0.855
			c0.346,1.713,1.873,2.361,3.42,2.361c2.223,0,3.311-1.598,3.311-3.076c0-1.6-0.672-2.521-2.66-4.166l-1.041-0.857
			c-2.454-2.01-3.008-3.447-3.008-5.02c0-2.477,1.852-4.164,4.789-4.164c0.901,0,1.57,0.094,2.152,0.232
			c0.439,0.092,0.623,0.113,0.808,0.113s0.233,0.047,0.233,0.164c0,0.115-0.093,0.879-0.093,2.451c0,0.371-0.048,0.533-0.163,0.533
			c-0.139,0-0.162-0.117-0.186-0.301c-0.021-0.279-0.16-0.902-0.299-1.158c-0.14-0.256-0.765-1.227-2.893-1.227
			c-1.599,0-2.846,0.996-2.846,2.686c0,1.318,0.603,2.148,2.821,3.887l0.647,0.508c2.73,2.152,3.379,3.588,3.379,5.438
			c0,0.947-0.369,2.705-1.967,3.84c-0.994,0.697-2.246,0.971-3.494,0.971C647.095,548.01,646.028,547.852,645.082,547.387z"/>
	</g>
	<g>
		<path fill="#333333" d="M307.296,408.041c0,8.254,0,14.703,0.43,18.314c0.257,2.491,0.774,4.385,3.353,4.729
			c1.204,0.174,3.094,0.346,4.298,0.346c1.12,0,1.462,0.258,1.462,0.688c0,0.602-0.601,0.859-1.892,0.859
			c-5.417,0-10.834-0.258-13.069-0.258s-7.653,0.258-10.92,0.258c-1.204,0-1.807-0.172-1.807-0.859c0-0.43,0.344-0.688,1.291-0.688
			c1.29,0,2.322-0.172,3.096-0.346c1.718-0.344,2.147-2.237,2.492-4.729c0.433-3.611,0.433-10.061,0.433-18.314v-15.135
			c0-13.07,0-15.479-0.175-18.229c-0.171-2.925-0.859-4.3-3.697-4.902c-0.687-0.172-2.149-0.258-3.354-0.258
			c-0.859,0-1.46-0.171-1.46-0.688c0-0.688,0.688-0.86,1.978-0.86c2.236,0,4.73,0.086,6.965,0.086
			c2.236,0.086,4.214,0.171,5.416,0.171c3.269,0,20.724,0,22.704-0.085c1.632-0.086,2.666-0.086,3.526-0.344
			c0.515-0.171,0.945-0.516,1.374-0.516c0.346,0,0.603,0.344,0.603,0.773c0,0.602-0.43,1.633-0.688,3.87
			c-0.084,0.859-0.257,5.933-0.428,6.963c-0.087,0.69-0.26,1.205-0.859,1.205c-0.603,0-0.776-0.431-0.86-1.376
			c0-0.688,0-2.065-0.517-3.267c-0.603-1.204-2.409-2.493-5.675-2.579l-13.244-0.26c-0.514,0-0.772,0.26-0.772,1.205v21.499
			c0,0.515,0.087,0.774,0.601,0.774L318.903,396c1.462,0,2.665,0,3.87-0.084c1.634-0.086,2.838-0.431,3.697-1.546
			c0.43-0.518,0.603-0.861,1.118-0.861c0.344,0,0.516,0.258,0.516,0.773c0,0.517-0.43,2.665-0.687,5.331
			c-0.173,1.719-0.344,5.675-0.344,6.279c0,0.772,0,1.632-0.859,1.632c-0.516,0-0.688-0.602-0.688-1.202
			c0-0.603-0.171-1.636-0.516-2.666c-0.431-1.204-1.721-2.752-4.385-3.096c-2.149-0.258-11.264-0.258-12.727-0.258
			c-0.43,0-0.601,0.173-0.601,0.775V408.041z"/>
		<path fill="#333333" d="M360.688,408.041c0,11.006,0,16.939,1.807,18.486c1.462,1.292,3.697,1.891,10.404,1.891
			c4.559,0,7.91-0.085,10.063-2.405c1.029-1.118,2.06-3.526,2.233-5.161c0.087-0.773,0.259-1.289,0.947-1.289
			c0.601,0,0.687,0.43,0.687,1.461c0,0.946-0.601,7.395-1.288,9.891c-0.519,1.891-0.947,2.322-5.418,2.322
			c-6.192,0-10.663-0.174-14.532-0.26c-3.87-0.172-6.966-0.258-10.49-0.258c-0.947,0-2.839,0-4.903,0.086
			c-1.978,0-4.214,0.172-5.933,0.172c-1.117,0-1.72-0.258-1.72-0.859c0-0.43,0.343-0.688,1.375-0.688
			c1.291,0,2.323-0.172,3.096-0.346c1.721-0.344,2.149-2.237,2.494-4.729c0.43-3.611,0.43-10.403,0.43-18.314v-15.135
			c0-13.07,0-15.479-0.171-18.229c-0.173-2.925-0.859-4.3-3.699-4.902c-0.687-0.172-1.718-0.258-2.836-0.258
			c-0.947,0-1.462-0.171-1.462-0.775c0-0.6,0.603-0.773,1.893-0.773c4.041,0,9.458,0.258,11.781,0.258
			c2.062,0,8.339-0.258,11.694-0.258c1.202,0,1.805,0.173,1.805,0.773c0,0.604-0.517,0.775-1.548,0.775
			c-0.945,0-2.322,0.085-3.353,0.258c-2.322,0.43-3.009,1.892-3.183,4.902c-0.171,2.75-0.171,5.159-0.171,18.229V408.041z"/>
		<path fill="#333333" d="M401.958,392.906c0-13.07,0-15.479-0.174-18.229c-0.171-2.925-0.858-4.3-3.697-4.902
			c-0.687-0.172-2.149-0.258-3.353-0.258c-0.945,0-1.462-0.171-1.462-0.775c0-0.6,0.601-0.773,1.893-0.773
			c2.322,0,4.815,0.086,6.964,0.086c2.236,0.086,4.214,0.171,5.419,0.171c2.752,0,19.863,0,21.495-0.085
			c1.634-0.173,3.01-0.344,3.699-0.516c0.428-0.087,0.945-0.344,1.375-0.344c0.43,0,0.516,0.344,0.516,0.773
			c0,0.602-0.43,1.633-0.687,5.589c-0.086,0.859-0.259,4.644-0.43,5.673c-0.087,0.431-0.26,0.946-0.859,0.946
			c-0.603,0-0.776-0.428-0.776-1.202c0-0.602-0.084-2.063-0.515-3.094c-0.601-1.55-1.461-2.581-5.759-3.096
			c-1.464-0.173-10.492-0.345-12.211-0.345c-0.431,0-0.603,0.258-0.603,0.86v21.755c0,0.603,0.087,0.947,0.603,0.947
			c1.891,0,11.78,0,13.758-0.173c2.065-0.171,3.354-0.431,4.129-1.291c0.599-0.687,0.945-1.117,1.375-1.117
			c0.344,0,0.6,0.17,0.6,0.688c0,0.515-0.343,1.893-0.687,6.277c-0.085,1.721-0.343,5.159-0.343,5.761c0,0.688,0,1.635-0.774,1.635
			c-0.603,0-0.775-0.346-0.775-0.773c-0.087-0.861-0.087-1.98-0.343-3.096c-0.43-1.721-1.633-3.011-4.815-3.353
			c-1.633-0.173-10.146-0.259-12.209-0.259c-0.43,0-0.517,0.343-0.517,0.86v6.793c0,2.923-0.085,10.834,0,13.328
			c0.171,5.934,1.548,7.223,10.319,7.223c2.235,0,5.847,0,8.083-1.033c2.235-1.031,3.267-2.836,3.87-6.361
			c0.171-0.947,0.342-1.291,0.945-1.291c0.687,0,0.687,0.689,0.687,1.548c0,1.979-0.687,7.824-1.117,9.545
			c-0.603,2.237-1.376,2.237-4.644,2.237c-6.449,0-11.179-0.174-14.875-0.26c-3.697-0.172-6.364-0.258-8.942-0.258
			c-0.945,0-2.838,0-4.903,0.086c-1.978,0-4.211,0.172-5.93,0.172c-1.12,0-1.723-0.258-1.723-0.859c0-0.43,0.346-0.688,1.377-0.688
			c1.291,0,2.322-0.172,3.096-0.346c1.719-0.344,2.149-2.237,2.494-4.729c0.431-3.611,0.431-10.403,0.431-18.314V392.906z"/>
		<path fill="#333333" d="M467.731,372.785l-12.811,0.345c-4.986,0.173-7.052,0.602-8.341,2.493
			c-0.861,1.291-1.29,2.321-1.462,3.011c-0.173,0.685-0.431,1.03-0.947,1.03c-0.601,0-0.772-0.43-0.772-1.374
			c0-1.375,1.634-9.201,1.807-9.889c0.257-1.118,0.514-1.635,1.029-1.635c0.69,0,1.55,0.861,3.701,1.033
			c2.493,0.258,5.759,0.429,8.596,0.429h34.054c2.752,0,4.643-0.258,5.932-0.429c1.289-0.259,1.979-0.431,2.322-0.431
			c0.601,0,0.688,0.516,0.688,1.806c0,1.806-0.256,7.741-0.256,9.976c-0.088,0.861-0.26,1.375-0.775,1.375
			c-0.689,0-0.86-0.43-0.947-1.72l-0.084-0.946c-0.172-2.236-2.496-4.644-10.148-4.816l-10.834-0.257v35.256
			c0,7.911,0,14.703,0.43,18.401c0.258,2.404,0.772,4.298,3.354,4.642c1.205,0.174,3.096,0.346,4.387,0.346
			c0.943,0,1.375,0.258,1.375,0.688c0,0.602-0.688,0.859-1.634,0.859c-5.675,0-11.093-0.258-13.499-0.258
			c-1.978,0-7.395,0.258-10.836,0.258c-1.117,0-1.719-0.258-1.719-0.859c0-0.43,0.346-0.688,1.377-0.688
			c1.288,0,2.32-0.172,3.093-0.346c1.721-0.344,2.238-2.237,2.498-4.729c0.427-3.611,0.427-10.403,0.427-18.314V372.785z"/>
		<path fill="#333333" d="M517.514,424.807c-8.429-7.395-10.662-17.025-10.662-25.366c0-5.847,1.805-15.993,10.059-23.561
			c6.193-5.675,14.363-9.115,27.172-9.115c5.332,0,8.516,0.344,12.471,0.861c3.268,0.429,6.018,1.203,8.598,1.461
			c0.946,0.085,1.291,0.515,1.291,1.031c0,0.689-0.258,1.72-0.432,4.729c-0.168,2.838-0.086,7.568-0.256,9.288
			c-0.087,1.289-0.258,1.977-1.033,1.977c-0.686,0-0.858-0.688-0.858-1.893c-0.086-2.666-1.204-5.675-3.354-7.911
			c-2.838-3.008-9.544-5.332-17.457-5.332c-7.479,0-12.381,1.893-16.165,5.332c-6.276,5.763-7.909,13.93-7.909,22.271
			c0,20.466,15.563,30.612,27.085,30.612c7.653,0,12.296-0.86,15.737-4.816c1.461-1.633,2.578-4.127,2.922-5.675
			c0.258-1.375,0.43-1.72,1.121-1.72c0.6,0,0.771,0.602,0.771,1.29c0,1.03-1.033,8.513-1.893,11.438
			c-0.43,1.46-0.773,1.89-2.236,2.493c-3.439,1.375-9.975,1.977-15.478,1.977C535.227,434.18,525.34,431.6,517.514,424.807z"/>
		<path fill="#333333" d="M629.118,395.315c0.259,0,0.516-0.173,0.516-0.603v-1.806c0-13.07,0-15.479-0.171-18.229
			c-0.176-2.925-0.86-4.3-3.699-4.902c-0.688-0.172-2.147-0.258-3.354-0.258c-0.945,0-1.462-0.171-1.462-0.775
			c0-0.6,0.603-0.773,1.807-0.773c4.644,0,10.061,0.258,12.382,0.258c2.066,0,7.482-0.258,10.835-0.258
			c1.204,0,1.807,0.173,1.807,0.773c0,0.604-0.517,0.775-1.55,0.775c-0.687,0-1.462,0.085-2.493,0.258
			c-2.321,0.43-3.009,1.892-3.182,4.902c-0.171,2.75-0.171,5.159-0.171,18.229v15.135c0,7.911,0,14.703,0.43,18.401
			c0.258,2.404,0.773,4.298,3.354,4.642c1.205,0.174,3.096,0.346,4.385,0.346c0.945,0,1.377,0.258,1.377,0.688
			c0,0.602-0.688,0.859-1.721,0.859c-5.588,0-11.004-0.258-13.414-0.258c-1.978,0-7.395,0.258-10.748,0.258
			c-1.205,0-1.806-0.258-1.806-0.859c0-0.43,0.343-0.688,1.377-0.688c1.29,0,2.32-0.172,3.093-0.346
			c1.721-0.344,2.15-2.237,2.494-4.729c0.431-3.611,0.431-10.403,0.431-18.314v-7.567c0-0.344-0.257-0.517-0.516-0.517h-32.85
			c-0.255,0-0.515,0.085-0.515,0.517v7.567c0,7.911,0,14.703,0.431,18.401c0.259,2.404,0.776,4.298,3.354,4.642
			c1.203,0.174,3.094,0.346,4.385,0.346c0.946,0,1.378,0.258,1.378,0.688c0,0.602-0.692,0.859-1.723,0.859
			c-5.591,0-11.006-0.258-13.413-0.258c-1.98,0-7.396,0.258-10.835,0.258c-1.118,0-1.72-0.258-1.72-0.859
			c0-0.43,0.343-0.688,1.377-0.688c1.289,0,2.32-0.172,3.096-0.346c1.719-0.344,2.146-2.237,2.492-4.729
			c0.43-3.611,0.43-10.403,0.43-18.314v-15.135c0-13.07,0-15.479-0.172-18.229c-0.17-2.925-0.86-4.3-3.696-4.902
			c-0.688-0.172-2.149-0.258-3.354-0.258c-0.945,0-1.463-0.171-1.463-0.775c0-0.6,0.604-0.773,1.807-0.773
			c4.643,0,10.059,0.258,12.383,0.258c2.063,0,7.479-0.258,10.834-0.258c1.203,0,1.806,0.173,1.806,0.773
			c0,0.604-0.517,0.775-1.548,0.775c-0.689,0-1.461,0.085-2.495,0.258c-2.321,0.43-3.006,1.892-3.181,4.902
			c-0.172,2.75-0.172,5.159-0.172,18.229v1.806c0,0.43,0.26,0.603,0.515,0.603H629.118z"/>
		<path fill="#333333" d="M668.578,392.906c0-13.07,0-15.479-0.172-18.229c-0.172-2.925-0.861-4.3-3.698-4.902
			c-0.688-0.172-2.149-0.258-3.354-0.258c-0.945,0-1.461-0.171-1.461-0.775c0-0.6,0.602-0.773,1.893-0.773
			c2.322,0,4.814,0.086,6.963,0.086c2.236,0.086,4.216,0.171,5.42,0.171c2.75,0,19.861,0,21.496-0.085
			c1.633-0.173,3.01-0.344,3.699-0.516c0.43-0.087,0.945-0.344,1.373-0.344c0.432,0,0.518,0.344,0.518,0.773
			c0,0.602-0.432,1.633-0.689,5.589c-0.086,0.859-0.256,4.644-0.43,5.673c-0.088,0.431-0.258,0.946-0.859,0.946
			s-0.773-0.428-0.773-1.202c0-0.602-0.086-2.063-0.516-3.094c-0.602-1.55-1.465-2.581-5.764-3.096
			c-1.459-0.173-10.49-0.345-12.209-0.345c-0.428,0-0.602,0.258-0.602,0.86v21.755c0,0.603,0.084,0.947,0.602,0.947
			c1.893,0,11.779,0,13.758-0.173c2.064-0.171,3.355-0.431,4.127-1.291c0.604-0.687,0.947-1.117,1.377-1.117
			c0.344,0,0.602,0.17,0.602,0.688c0,0.515-0.346,1.893-0.689,6.277c-0.084,1.721-0.342,5.159-0.342,5.761
			c0,0.688,0,1.635-0.775,1.635c-0.602,0-0.773-0.346-0.773-0.773c-0.086-0.861-0.086-1.98-0.344-3.096
			c-0.432-1.721-1.633-3.011-4.814-3.353c-1.635-0.173-10.146-0.259-12.213-0.259c-0.43,0-0.514,0.343-0.514,0.86v6.793
			c0,2.923-0.086,10.834,0,13.328c0.174,5.934,1.549,7.223,10.32,7.223c2.234,0,5.846,0,8.082-1.033
			c2.232-1.031,3.266-2.836,3.869-6.361c0.17-0.947,0.344-1.291,0.945-1.291c0.689,0,0.689,0.689,0.689,1.548
			c0,1.979-0.689,7.824-1.119,9.545c-0.602,2.237-1.377,2.237-4.643,2.237c-6.451,0-11.18-0.174-14.879-0.26
			c-3.695-0.172-6.363-0.258-8.941-0.258c-0.945,0-2.838,0-4.9,0.086c-1.979,0-4.215,0.172-5.935,0.172
			c-1.116,0-1.718-0.258-1.718-0.859c0-0.43,0.342-0.688,1.375-0.688c1.29,0,2.322-0.172,3.094-0.346
			c1.723-0.344,2.15-2.237,2.494-4.729c0.432-3.611,0.432-10.403,0.432-18.314V392.906z"/>
		<path fill="#333333" d="M722.916,392.906c0-13.07,0-15.479-0.172-18.229c-0.174-2.925-0.861-4.3-3.699-4.902
			c-0.688-0.172-2.15-0.258-3.352-0.258c-0.947,0-1.463-0.171-1.463-0.775c0-0.6,0.602-0.773,1.893-0.773
			c4.557,0,9.973,0.258,11.779,0.258c2.924,0,9.459-0.258,12.123-0.258c5.42,0,11.182,0.515,15.824,3.698
			c2.406,1.635,5.848,6.02,5.848,11.781c0,6.364-2.668,12.21-11.352,19.261c7.65,9.63,13.584,17.284,18.658,22.616
			c4.816,4.986,8.342,5.59,9.631,5.846c0.947,0.174,1.719,0.26,2.408,0.26s1.031,0.258,1.031,0.688c0,0.688-0.6,0.859-1.633,0.859
			h-8.17c-4.816,0-6.965-0.43-9.199-1.633c-3.699-1.979-6.967-6.02-11.779-12.642c-3.441-4.728-7.396-10.575-8.516-11.866
			c-0.43-0.515-0.945-0.602-1.547-0.602l-7.482-0.174c-0.43,0-0.686,0.174-0.686,0.691v1.201c0,7.999,0,14.791,0.43,18.402
			c0.256,2.491,0.773,4.385,3.352,4.729c1.291,0.174,3.182,0.346,4.215,0.346c0.689,0,1.031,0.258,1.031,0.688
			c0,0.602-0.602,0.859-1.719,0.859c-4.988,0-11.352-0.258-12.643-0.258c-1.633,0-7.049,0.258-10.488,0.258
			c-1.117,0-1.719-0.258-1.719-0.859c0-0.43,0.342-0.688,1.373-0.688c1.291,0,2.324-0.172,3.096-0.346
			c1.721-0.344,2.152-2.237,2.494-4.729c0.432-3.611,0.432-10.403,0.432-18.314V392.906z M733.063,399.7
			c0,0.947,0.17,1.289,0.773,1.548c1.807,0.601,4.385,0.859,6.535,0.859c3.438,0,4.559-0.344,6.105-1.46
			c2.578-1.892,5.072-5.848,5.072-12.899c0-12.21-8.082-15.736-13.156-15.736c-2.148,0-3.697,0.085-4.557,0.345
			c-0.604,0.171-0.773,0.516-0.773,1.203V399.7z"/>
	</g>
	<g>
		<path fill="#333333" d="M296.463,464.738c0-13.072,0-15.477-0.175-18.23c-0.171-2.922-0.859-4.297-3.697-4.902
			c-0.687-0.168-2.149-0.256-3.351-0.256c-0.947,0-1.464-0.174-1.464-0.774s0.601-0.774,1.891-0.774
			c2.323,0,4.817,0.086,6.966,0.086c2.235,0.088,4.213,0.174,5.418,0.174c2.752,0,19.864,0,21.497-0.086
			c1.633-0.174,3.01-0.345,3.697-0.518c0.43-0.084,0.945-0.343,1.377-0.343c0.43,0,0.516,0.343,0.516,0.772
			c0,0.604-0.43,1.635-0.687,5.59c-0.085,0.861-0.26,4.645-0.432,5.676c-0.085,0.43-0.257,0.945-0.859,0.945
			c-0.601,0-0.774-0.432-0.774-1.203c0-0.602-0.087-2.064-0.516-3.097c-0.603-1.548-1.462-2.579-5.761-3.096
			c-1.462-0.17-10.492-0.343-12.211-0.343c-0.43,0-0.601,0.259-0.601,0.859v21.757c0,0.601,0.087,0.943,0.601,0.943
			c1.89,0,11.781,0,13.759-0.171c2.062-0.172,3.351-0.43,4.128-1.289c0.6-0.689,0.944-1.119,1.374-1.119
			c0.346,0,0.603,0.172,0.603,0.688c0,0.515-0.344,1.891-0.688,6.276c-0.085,1.719-0.344,5.161-0.344,5.762
			c0,0.689,0,1.633-0.774,1.633c-0.601,0-0.774-0.343-0.774-0.773c-0.087-0.859-0.087-1.977-0.342-3.096
			c-0.432-1.719-1.634-3.008-4.815-3.354c-1.634-0.172-10.148-0.258-12.211-0.258c-0.428,0-0.515,0.346-0.515,0.859v6.793
			c0,2.924-0.087,10.836,0,13.33c0.171,5.934,1.546,7.223,10.319,7.223c2.235,0,5.846,0,8.083-1.031
			c2.235-1.033,3.266-2.84,3.87-6.364c0.17-0.945,0.343-1.29,0.944-1.29c0.688,0,0.688,0.688,0.688,1.547
			c0,1.979-0.688,7.828-1.117,9.547c-0.603,2.236-1.377,2.236-4.644,2.236c-6.451,0-11.179-0.174-14.877-0.26
			c-3.696-0.172-6.362-0.258-8.941-0.258c-0.947,0-2.839,0-4.902,0.086c-1.978,0-4.213,0.172-5.934,0.172
			c-1.118,0-1.719-0.258-1.719-0.859c0-0.43,0.344-0.688,1.376-0.688c1.29,0,2.322-0.174,3.096-0.344
			c1.718-0.344,2.147-2.236,2.492-4.73c0.433-3.611,0.433-10.404,0.433-18.316V464.738z"/>
		<path fill="#333333" d="M389.923,503.777c-3.438,1.291-8.942,2.234-13.499,2.234c-25.195,0-34.999-18.66-34.999-34.137
			c0-14.017,10.062-33.277,35.255-33.277c20.553,0,34.826,12.469,34.826,32.59c0,15.133-9.545,24.68-14.961,28.289l17.284,8.857
			c18.145,9.287,29.58,10.234,35.427,10.234c4.471,0,10.833-0.689,16.768-3.012c0.515-0.172,0.947-0.428,1.291-0.428
			c0.43,0,0.772,0.342,0.772,0.771c0,0.518-0.43,0.773-1.033,1.031c-5.158,2.498-14.876,6.451-27.257,6.451
			c-12.983,0-22.185-3.355-36.374-11.695L389.923,503.777z M399.47,473.51c0-20.809-12.9-30.784-24.765-30.784
			c-11.266,0-21.325,7.222-21.325,27.173c0,20.465,12.381,31.814,26.226,31.814C386.484,501.713,399.47,498.703,399.47,473.51z"/>
		<path fill="#333333" d="M427.063,464.738c0-13.072,0-15.477-0.173-18.23c-0.171-2.922-0.86-4.297-3.695-4.902
			c-0.688-0.168-2.152-0.256-3.355-0.256c-0.947,0-1.46-0.174-1.46-0.774s0.601-0.774,1.891-0.774c4.557,0,9.973,0.26,12.554,0.26
			c2.063,0,7.481-0.26,10.578-0.26c1.29,0,1.891,0.174,1.891,0.774s-0.516,0.774-1.375,0.774c-0.947,0-1.462,0.088-2.495,0.256
			c-2.32,0.432-3.009,1.895-3.182,4.902c-0.17,2.754-0.17,5.158-0.17,18.23v12.039c0,12.469,2.494,17.713,6.706,21.152
			c3.869,3.184,7.826,3.525,10.749,3.525c3.783,0,8.425-1.203,11.867-4.645c4.728-4.728,4.985-12.466,4.985-21.324v-10.748
			c0-13.072,0-15.477-0.171-18.23c-0.171-2.922-0.859-4.297-3.699-4.902c-0.685-0.168-2.147-0.256-3.094-0.256
			c-0.945,0-1.462-0.174-1.462-0.774s0.603-0.774,1.807-0.774c4.385,0,9.803,0.26,9.889,0.26c1.032,0,6.449-0.26,9.801-0.26
			c1.205,0,1.807,0.174,1.807,0.774s-0.516,0.774-1.547,0.774c-0.945,0-1.461,0.088-2.496,0.256
			c-2.32,0.432-3.007,1.895-3.182,4.902c-0.171,2.754-0.171,5.158-0.171,18.23v9.201c0,9.544-0.945,19.691-8.168,25.883
			c-6.104,5.246-12.297,6.189-17.884,6.189c-4.559,0-12.814-0.258-19.092-5.93c-4.384-3.957-7.651-10.32-7.651-22.789V464.738z"/>
		<path fill="#333333" d="M504.015,464.738c0-13.072,0-15.477-0.173-18.23c-0.174-2.922-1.031-4.385-2.924-4.814
			c-0.945-0.256-2.064-0.344-3.096-0.344c-0.861,0-1.375-0.174-1.375-0.859c0-0.516,0.687-0.689,2.063-0.689
			c3.268,0,8.684,0.26,11.178,0.26c2.149,0,7.223-0.26,10.492-0.26c1.117,0,1.805,0.174,1.805,0.689
			c0,0.686-0.516,0.859-1.375,0.859c-0.861,0-1.548,0.088-2.58,0.256c-2.322,0.432-3.01,1.895-3.18,4.902
			c-0.174,2.754-0.174,5.158-0.174,18.23v15.133c0,8.34,0,15.133,0.344,18.832c0.258,2.324,0.86,3.871,3.439,4.215
			c1.205,0.17,3.096,0.344,4.385,0.344c0.945,0,1.379,0.258,1.379,0.688c0,0.602-0.691,0.859-1.637,0.859
			c-5.676,0-11.092-0.258-13.414-0.258c-1.979,0-7.395,0.258-10.834,0.258c-1.118,0-1.719-0.258-1.719-0.859
			c0-0.43,0.342-0.688,1.376-0.688c1.29,0,2.32-0.174,3.093-0.344c1.723-0.344,2.236-1.805,2.495-4.301
			c0.432-3.613,0.432-10.406,0.432-18.746V464.738z"/>
		<path fill="#333333" d="M547.691,493.113c0.17,6.709,1.29,8.943,3.01,9.545c1.461,0.516,3.096,0.604,4.473,0.604
			c0.943,0,1.461,0.17,1.461,0.688c0,0.688-0.776,0.859-1.979,0.859c-5.591,0-9.029-0.258-10.664-0.258
			c-0.773,0-4.814,0.258-9.285,0.258c-1.117,0-1.891-0.086-1.891-0.859c0-0.518,0.516-0.688,1.373-0.688
			c1.12,0,2.668-0.088,3.871-0.43c2.235-0.688,2.58-3.184,2.664-10.664l0.775-50.646c0-1.721,0.257-2.924,1.118-2.924
			c0.945,0,1.72,1.117,3.18,2.666c1.032,1.117,14.104,14.875,26.657,27.344c5.848,5.848,17.455,18.23,18.918,19.604h0.43
			l-0.859-38.606c-0.086-5.245-0.86-6.879-2.926-7.738c-1.287-0.517-3.353-0.517-4.557-0.517c-1.031,0-1.375-0.258-1.375-0.774
			c0-0.688,0.945-0.774,2.234-0.774c4.473,0,8.6,0.26,10.405,0.26c0.948,0,4.214-0.26,8.427-0.26c1.118,0,1.979,0.086,1.979,0.774
			c0,0.517-0.517,0.774-1.55,0.774c-0.859,0-1.547,0-2.578,0.256c-2.408,0.689-3.096,2.497-3.182,7.311l-0.944,54.258
			c0,1.895-0.346,2.666-1.12,2.666c-0.945,0-1.977-0.945-2.923-1.891c-5.418-5.158-16.424-16.423-25.368-25.281
			c-9.371-9.287-18.915-19.775-20.463-21.41h-0.259L547.691,493.113z"/>
		<path fill="#333333" d="M624.298,464.738c0-13.072,0-15.477-0.171-18.23c-0.175-2.922-0.861-4.297-3.699-4.902
			c-0.688-0.168-2.15-0.256-3.354-0.256c-0.945,0-1.461-0.174-1.461-0.774s0.602-0.774,1.892-0.774c2.32,0,4.815,0.086,6.964,0.086
			c2.236,0.088,4.215,0.174,5.417,0.174c2.753,0,19.866,0,21.499-0.086c1.633-0.174,3.011-0.345,3.695-0.518
			c0.432-0.084,0.947-0.343,1.377-0.343s0.518,0.343,0.518,0.772c0,0.604-0.432,1.635-0.688,5.59
			c-0.088,0.861-0.26,4.645-0.431,5.676c-0.089,0.43-0.259,0.945-0.86,0.945c-0.601,0-0.773-0.432-0.773-1.203
			c0-0.602-0.088-2.064-0.518-3.097c-0.602-1.548-1.462-2.579-5.76-3.096c-1.463-0.17-10.49-0.343-12.212-0.343
			c-0.43,0-0.603,0.259-0.603,0.859v21.757c0,0.601,0.088,0.943,0.603,0.943c1.893,0,11.78,0,13.759-0.171
			c2.063-0.172,3.355-0.43,4.127-1.289c0.604-0.689,0.945-1.119,1.377-1.119c0.344,0,0.602,0.172,0.602,0.688
			c0,0.515-0.344,1.891-0.688,6.276c-0.085,1.719-0.345,5.161-0.345,5.762c0,0.689,0,1.633-0.773,1.633
			c-0.602,0-0.773-0.343-0.773-0.773c-0.086-0.859-0.086-1.977-0.344-3.096c-0.431-1.719-1.637-3.008-4.814-3.354
			c-1.634-0.172-10.148-0.258-12.211-0.258c-0.43,0-0.518,0.346-0.518,0.859v6.793c0,2.924-0.084,10.836,0,13.33
			c0.173,5.934,1.548,7.223,10.318,7.223c2.237,0,5.85,0,8.084-1.031c2.234-1.033,3.269-2.84,3.871-6.364
			c0.17-0.945,0.342-1.29,0.945-1.29c0.688,0,0.688,0.688,0.688,1.547c0,1.979-0.688,7.828-1.118,9.547
			c-0.602,2.236-1.377,2.236-4.645,2.236c-6.449,0-11.177-0.174-14.875-0.26c-3.699-0.172-6.363-0.258-8.943-0.258
			c-0.945,0-2.837,0-4.9,0.086c-1.979,0-4.215,0.172-5.934,0.172c-1.118,0-1.719-0.258-1.719-0.859c0-0.43,0.342-0.688,1.373-0.688
			c1.291,0,2.323-0.174,3.096-0.344c1.721-0.344,2.15-2.236,2.494-4.73c0.431-3.611,0.431-10.404,0.431-18.316V464.738z"/>
	</g>
	<g>
		
			<linearGradient id="SVGID_19_" gradientUnits="userSpaceOnUse" x1="46.6978" y1="400.4668" x2="98.77" y2="400.4668" gradientTransform="matrix(0.9937 0.1119 -0.1119 0.9937 57.1407 -165.7034)">
			<stop  offset="0" style="stop-color:#F15A24"/>
			<stop  offset="1" style="stop-color:#990000"/>
		</linearGradient>
		<path fill="url(#SVGID_19_)" d="M60.264,223.865c0,0,15.125,28.388,49.349,27.097l-10.167,4.642
			C99.446,255.604,75.135,257.366,60.264,223.865z"/>
		
			<linearGradient id="SVGID_20_" gradientUnits="userSpaceOnUse" x1="28.8052" y1="413.5654" x2="80.8794" y2="413.5654" gradientTransform="matrix(0.9937 0.1119 -0.1119 0.9937 57.1407 -165.7034)">
			<stop  offset="0" style="stop-color:#F15A24"/>
			<stop  offset="1" style="stop-color:#990000"/>
		</linearGradient>
		<path fill="url(#SVGID_20_)" d="M41.019,234.879c0,0,15.128,28.386,49.351,27.096l-10.169,4.643
			C80.201,266.618,55.891,268.38,41.019,234.879z"/>
		
			<linearGradient id="SVGID_21_" gradientUnits="userSpaceOnUse" x1="191.0728" y1="542.9971" x2="214.5454" y2="542.9971" gradientTransform="matrix(0.9937 0.1119 -0.1119 0.9937 57.1407 -165.7034)">
			<stop  offset="0" style="stop-color:#F15A24"/>
			<stop  offset="1" style="stop-color:#990000"/>
		</linearGradient>
		<path fill="url(#SVGID_21_)" d="M191.503,348.589c0,0,41.417,47.58-1.938,94.294C189.566,442.883,221.438,395.358,191.503,348.589
			z"/>
		
			<linearGradient id="SVGID_22_" gradientUnits="userSpaceOnUse" x1="203.0693" y1="619.1875" x2="216.9487" y2="619.1875" gradientTransform="matrix(0.9937 0.1119 -0.1119 0.9937 57.1407 -165.7034)">
			<stop  offset="0" style="stop-color:#F15A24"/>
			<stop  offset="1" style="stop-color:#990000"/>
		</linearGradient>
		<path fill="url(#SVGID_22_)" d="M197.458,437.02c0,0-16.871,29.927,1.957,72.553C199.415,509.572,189.094,477.064,197.458,437.02z
			"/>
		
			<linearGradient id="SVGID_23_" gradientUnits="userSpaceOnUse" x1="146.9878" y1="637.1582" x2="166.6694" y2="637.1582" gradientTransform="matrix(0.9937 0.1119 -0.1119 0.9937 57.1407 -165.7034)">
			<stop  offset="0" style="stop-color:#F15A24"/>
			<stop  offset="1" style="stop-color:#990000"/>
		</linearGradient>
		<path fill="url(#SVGID_23_)" d="M136.007,447.462c0,0,12.476,43.354,8.939,74.784
			C144.946,522.246,159.798,497.393,136.007,447.462z"/>
		
			<linearGradient id="SVGID_24_" gradientUnits="userSpaceOnUse" x1="169.5103" y1="681.2705" x2="218.4175" y2="681.2705" gradientTransform="matrix(0.9937 0.1119 -0.1119 0.9937 57.1407 -165.7034)">
			<stop  offset="0" style="stop-color:#F15A24"/>
			<stop  offset="1" style="stop-color:#990000"/>
		</linearGradient>
		<path fill="url(#SVGID_24_)" d="M149.164,531.895c0,0,7.76,12.434,14.535,12.232c6.772-0.201,18.676,1.139,23.76-1.182
			s11.93-16.016,11.83-19.404c0,0-7.747,13.111-13.622,13.898c-5.874,0.785-23.336,1.713-23.336,1.713L149.164,531.895z"/>
		
			<linearGradient id="SVGID_25_" gradientUnits="userSpaceOnUse" x1="201.7485" y1="667.2031" x2="211.8057" y2="667.2031" gradientTransform="matrix(0.9937 0.1119 -0.1119 0.9937 57.1407 -165.7034)">
			<stop  offset="0" style="stop-color:#F15A24"/>
			<stop  offset="1" style="stop-color:#990000"/>
		</linearGradient>
		<path fill="url(#SVGID_25_)" d="M192.426,511.68c0,0-17.542,18.758-6.798,17.557C196.372,528.033,192.426,511.68,192.426,511.68z"
			/>
		
			<linearGradient id="SVGID_26_" gradientUnits="userSpaceOnUse" x1="174.3022" y1="670.6992" x2="180.0996" y2="670.6992" gradientTransform="matrix(0.9937 0.1119 -0.1119 0.9937 57.1407 -165.7034)">
			<stop  offset="0" style="stop-color:#F15A24"/>
			<stop  offset="1" style="stop-color:#990000"/>
		</linearGradient>
		<path fill="url(#SVGID_26_)" d="M156.178,512.418c0,0,3.799,9.096-0.658,14.395C155.521,526.813,166.04,536.191,156.178,512.418z"
			/>
		
			<linearGradient id="SVGID_27_" gradientUnits="userSpaceOnUse" x1="156.0942" y1="609.2559" x2="178.6108" y2="609.2559" gradientTransform="matrix(0.9937 0.1119 -0.1119 0.9937 57.1407 -165.7034)">
			<stop  offset="0" style="stop-color:#F15A24"/>
			<stop  offset="1" style="stop-color:#990000"/>
		</linearGradient>
		<path fill="url(#SVGID_27_)" d="M147.362,428.007c0,0,6.85,54.774,14.409,60.448C169.327,494.129,147.362,428.007,147.362,428.007
			z"/>
		
			<linearGradient id="SVGID_28_" gradientUnits="userSpaceOnUse" x1="193.0552" y1="595.9473" x2="204.9692" y2="595.9473" gradientTransform="matrix(0.9937 0.1119 -0.1119 0.9937 57.1407 -165.7034)">
			<stop  offset="0" style="stop-color:#F15A24"/>
			<stop  offset="1" style="stop-color:#990000"/>
		</linearGradient>
		<path fill="url(#SVGID_28_)" d="M194.601,402.462c-0.59,39.475-26.852,50.02-5.696,93.389
			C174.635,446.988,199.629,434.855,194.601,402.462z"/>
		
			<linearGradient id="SVGID_29_" gradientUnits="userSpaceOnUse" x1="82.5801" y1="539.4033" x2="113.564" y2="539.4033" gradientTransform="matrix(0.9937 0.1119 -0.1119 0.9937 57.1407 -165.7034)">
			<stop  offset="0" style="stop-color:#F15A24"/>
			<stop  offset="1" style="stop-color:#990000"/>
		</linearGradient>
		<path fill="url(#SVGID_29_)" d="M95.332,436.128c-41.543-57.72,26.15-78.064,19.314-107.284
			C113.328,361.966,46.109,372.238,95.332,436.128z"/>
		
			<linearGradient id="SVGID_30_" gradientUnits="userSpaceOnUse" x1="154.3218" y1="509.3047" x2="180.7314" y2="509.3047" gradientTransform="matrix(0.9937 0.1119 -0.1119 0.9937 57.1407 -165.7034)">
			<stop  offset="0" style="stop-color:#F15A24"/>
			<stop  offset="1" style="stop-color:#990000"/>
		</linearGradient>
		<path fill="url(#SVGID_30_)" d="M178.375,372.738c2.088-23.361-20.542-17.76-23.511-27.199
			C160.805,354.715,181.604,346.334,178.375,372.738z"/>
		
			<linearGradient id="SVGID_31_" gradientUnits="userSpaceOnUse" x1="115.8384" y1="441.8906" x2="137.917" y2="441.8906" gradientTransform="matrix(0.9937 0.1119 -0.1119 0.9937 57.1407 -165.7034)">
			<stop  offset="0" style="stop-color:#F15A24"/>
			<stop  offset="1" style="stop-color:#990000"/>
		</linearGradient>
		<path fill="url(#SVGID_31_)" d="M119.852,329.912c-0.33-32.625,25.597-21.702,29.519-84.436
			C140.873,305.693,114.603,292.729,119.852,329.912z"/>
		
			<linearGradient id="SVGID_32_" gradientUnits="userSpaceOnUse" x1="73.6831" y1="505.709" x2="117.3667" y2="505.709" gradientTransform="matrix(0.9937 0.1119 -0.1119 0.9937 57.1407 -165.7034)">
			<stop  offset="0" style="stop-color:#F15A24"/>
			<stop  offset="1" style="stop-color:#990000"/>
		</linearGradient>
		<path fill="url(#SVGID_32_)" d="M73.732,409.586c-18.145-78.713,37.989-71.912,50.623-123.351
			C117.961,342.235,65.47,341.629,73.732,409.586z"/>
		
			<linearGradient id="SVGID_33_" gradientUnits="userSpaceOnUse" x1="94.9985" y1="437.1992" x2="132.8306" y2="437.1992" gradientTransform="matrix(0.9937 0.1119 -0.1119 0.9937 57.1407 -165.7034)">
			<stop  offset="0" style="stop-color:#F15A24"/>
			<stop  offset="1" style="stop-color:#990000"/>
		</linearGradient>
		<path fill="url(#SVGID_33_)" d="M99.459,314.129c-0.739-47.873,30.951-36.957,44.658-65.2
			C133.459,280.592,103.109,273.719,99.459,314.129z"/>
		
			<linearGradient id="SVGID_34_" gradientUnits="userSpaceOnUse" x1="143.8687" y1="460.6709" x2="167.8354" y2="460.6709" gradientTransform="matrix(0.9937 0.1119 -0.1119 0.9937 57.1407 -165.7034)">
			<stop  offset="0" style="stop-color:#F15A24"/>
			<stop  offset="1" style="stop-color:#990000"/>
		</linearGradient>
		<path fill="url(#SVGID_34_)" d="M157.247,332.254c0,0-11.811-26.238-5.421-46.834c0,0,21.91,10.269,19.878,31.348
			c0,0-6.8-21.647-15.018-24.195C148.467,290.022,157.247,332.254,157.247,332.254z"/>
		
			<linearGradient id="SVGID_35_" gradientUnits="userSpaceOnUse" x1="57.8521" y1="476.707" x2="87.7075" y2="476.707" gradientTransform="matrix(0.9937 0.1119 -0.1119 0.9937 57.1407 -165.7034)">
			<stop  offset="0" style="stop-color:#F15A24"/>
			<stop  offset="1" style="stop-color:#990000"/>
		</linearGradient>
		<path fill="url(#SVGID_35_)" d="M80.778,337.658c0,0-18.095-22.373-17.158-43.913c0,0,23.804,4.355,27.199,25.259
			c0,0-12.082-19.206-20.679-19.582C61.542,299.049,80.778,337.658,80.778,337.658z"/>
		
			<linearGradient id="SVGID_36_" gradientUnits="userSpaceOnUse" x1="189.6362" y1="469.9219" x2="223.8018" y2="469.9219" gradientTransform="matrix(0.9937 0.1119 -0.1119 0.9937 57.1407 -165.7034)">
			<stop  offset="0" style="stop-color:#F15A24"/>
			<stop  offset="1" style="stop-color:#990000"/>
		</linearGradient>
		<path fill="url(#SVGID_36_)" d="M198.602,272.72c0,0,29.047,37.507,21.173,103.163C219.775,375.883,239.608,311.09,198.602,272.72
			z"/>
		
			<linearGradient id="SVGID_37_" gradientUnits="userSpaceOnUse" x1="182.168" y1="23.0273" x2="206.1729" y2="23.0273" gradientTransform="matrix(0.9775 -0.2107 0.2107 0.9775 -10.2531 309.2537)">
			<stop  offset="0" style="stop-color:#F15A24"/>
			<stop  offset="1" style="stop-color:#990000"/>
		</linearGradient>
		<path fill="url(#SVGID_37_)" d="M165.253,258.983c0,0,27.748,18.476,37.208,63.971
			C202.46,322.954,201.158,275.354,165.253,258.983z"/>
		
			<linearGradient id="SVGID_38_" gradientUnits="userSpaceOnUse" x1="103.1128" y1="558.9063" x2="124.4731" y2="558.9063" gradientTransform="matrix(0.9937 0.1119 -0.1119 0.9937 57.1407 -165.7034)">
			<stop  offset="0" style="stop-color:#F15A24"/>
			<stop  offset="1" style="stop-color:#990000"/>
		</linearGradient>
		<path fill="url(#SVGID_38_)" d="M100.168,378.989c0,0-3.006,22.071,15.609,46.917C115.778,425.906,92.504,404.221,100.168,378.989
			z"/>
		
			<linearGradient id="SVGID_39_" gradientUnits="userSpaceOnUse" x1="250.875" y1="612.3271" x2="297.3125" y2="612.3271" gradientTransform="matrix(0.9999 0.1344 -0.0964 1.0499 43.7342 -215.4408)">
			<stop  offset="0" style="stop-color:#F15A24"/>
			<stop  offset="1" style="stop-color:#990000"/>
		</linearGradient>
		<path fill="url(#SVGID_39_)" d="M248.625,318.819c45.909,115.682-35.965,152.548,20.294,290.921
			C216.225,441.729,317.045,443.881,248.625,318.819z"/>
		
			<linearGradient id="SVGID_40_" gradientUnits="userSpaceOnUse" x1="241.2998" y1="602.4824" x2="277.0039" y2="602.4824" gradientTransform="matrix(0.9999 0.1344 -0.0964 1.0499 43.7342 -215.4408)">
			<stop  offset="0" style="stop-color:#F15A24"/>
			<stop  offset="1" style="stop-color:#990000"/>
		</linearGradient>
		<path fill="url(#SVGID_40_)" d="M236.979,340.093c35.296,88.944-27.657,117.294,15.603,223.687
			C212.064,434.6,289.584,436.248,236.979,340.093z"/>
		
			<linearGradient id="SVGID_41_" gradientUnits="userSpaceOnUse" x1="27.1938" y1="392.0557" x2="211.1978" y2="392.0557" gradientTransform="matrix(0.9937 0.1119 -0.1119 0.9937 57.1407 -165.7034)">
			<stop  offset="0" style="stop-color:#F15A24"/>
			<stop  offset="1" style="stop-color:#990000"/>
		</linearGradient>
		<path fill="url(#SVGID_41_)" d="M219.009,284.18c-34.717-136.998-132.815-2.419-174.587-93.92
			C71.262,290.205,181.252,161.304,219.009,284.18z"/>
		
			<linearGradient id="SVGID_42_" gradientUnits="userSpaceOnUse" x1="7.6177" y1="409.5176" x2="205.8579" y2="409.5176" gradientTransform="matrix(0.9937 0.1119 -0.1119 0.9937 57.1407 -165.7034)">
			<stop  offset="0" style="stop-color:#F15A24"/>
			<stop  offset="1" style="stop-color:#990000"/>
		</linearGradient>
		<path fill="url(#SVGID_42_)" d="M215.169,270.558c-84.516-113.277-123.63,48.601-197.243-19.946
			C80.975,332.674,133.257,171.492,215.169,270.558z"/>
		
			<linearGradient id="SVGID_43_" gradientUnits="userSpaceOnUse" x1="174.4292" y1="535.2441" x2="197.4302" y2="535.2441" gradientTransform="matrix(0.9937 0.1119 -0.1119 0.9937 57.1407 -165.7034)">
			<stop  offset="0" style="stop-color:#F15A24"/>
			<stop  offset="1" style="stop-color:#990000"/>
		</linearGradient>
		<path fill="url(#SVGID_43_)" d="M191.641,392.805c0.015-0.02,0.034-0.036,0.045-0.061c1.067-2.155,2.333-3.71,1.396-6.17
			c-0.346-0.9-0.54-1.581-0.364-2.552c0.1-0.56,0.327-1.089,0.299-1.668c-0.06-1.336-0.879-2.22-1.438-3.392
			c-1.369-2.856-1.555-6.687-1.535-9.79c0.013-2.159-1.222-3.971-2.714-5.413c-0.26-0.25-0.566,0.122-0.483,0.387
			c0.628,2.043,1.39,3.821,1.229,6.012c-0.166,2.303-0.721,4.559-0.947,6.856c-0.396,4.005,2.254,7.467,1.913,11.454
			c-0.1,0.036-0.178,0.114-0.183,0.254c-0.213,4.147-5.802,5.2-8.427,7.574c-0.043,0.01-0.094,0.032-0.142,0.074
			c-2.429,2.308-4.665,4.796-6.833,7.353c-0.842-2.094-1.466-4.221-0.595-6.423c0.719-1.822,2.456-2.976,4.022-4.008
			c2.172-1.436,5.139-3.021,5.607-5.85c0.068-0.405-0.569-0.476-0.637-0.069c-0.016,0.101-0.039,0.201-0.06,0.297
			c-0.06,0.032-0.11,0.078-0.139,0.155c-0.932,2.372-3.576,3.578-5.608,4.853c-2.14,1.341-4.455,2.285-6.008,4.371
			c-1.306,1.755-1.282,4.088-0.828,6.125c0.255,1.15,0.73,2.249,1.235,3.308c0.484,1.013,1.343,1.982,1.727,3.026
			c0.047,0.131,0.142,0.182,0.246,0.188c0.157,0.146,0.425,0.158,0.493-0.099c0.756-2.927,2.802-5.832,5.256-7.638
			c-0.374,2.346-0.674,5.235,0.037,7.507c0.026,0.077,0.068,0.123,0.121,0.153c0.045,0.059,0.112,0.108,0.205,0.121
			c3.771,0.57,7.036-1.617,9.427-4.336c3.151-3.585,3.208-7.925,3.713-12.429C191.683,392.909,191.663,392.852,191.641,392.805z
			 M184.566,401.215c0.246-1.104,0.208-2.259,0.597-3.34c0.021-0.058,0.022-0.108,0.014-0.155c1.448-0.503,2.896-0.887,4.125-1.779
			C188.583,398.272,186.487,399.751,184.566,401.215z"/>
		
			<linearGradient id="SVGID_44_" gradientUnits="userSpaceOnUse" x1="105.627" y1="560.6104" x2="121.2886" y2="560.6104" gradientTransform="matrix(0.9937 0.1119 -0.1119 0.9937 57.1407 -165.7034)">
			<stop  offset="0" style="stop-color:#F15A24"/>
			<stop  offset="1" style="stop-color:#990000"/>
		</linearGradient>
		<path fill="url(#SVGID_44_)" d="M115.963,393.009c-0.004,0.025-0.013,0.05-0.021,0.078c-0.029,0.016-0.056,0.036-0.076,0.071
			c-0.654,1.314-1.742,2.358-2.872,3.268c-1.066,0.858-2.348,1.737-3.679,2.115c-1.621,0.463-5.354,1.201-6.207-0.829
			c-0.041-0.097-0.129-0.11-0.204-0.078c0.027-0.116-0.125-0.252-0.262-0.171c-2.65,1.613-3.489,4.205-3.201,7.185
			c0.183,1.908,0.712,4.979,2.975,5.428c-0.021,0.022-0.039,0.05-0.045,0.092c-0.222,1.788-0.779,3.497-1.154,5.255
			c-0.039,0.172,0.197,0.222,0.288,0.101c0.031-0.007,0.062-0.022,0.087-0.059c0.808-1.16,1.728-2.241,2.343-3.526
			c0.538-1.132,0.74-2.469,0.679-3.717c-0.031-0.643-0.118-1.272-0.288-1.896c-0.165-0.601-0.523-1.146-0.764-1.717
			c-0.821-1.954,1.076-2.565,2.474-3.16c4.205-1.792,8.909-3.422,10.226-8.321C116.313,392.93,116.02,392.809,115.963,393.009z"/>
		
			<linearGradient id="SVGID_45_" gradientUnits="userSpaceOnUse" x1="68.5454" y1="428.6465" x2="110.8101" y2="428.6465" gradientTransform="matrix(0.9937 0.1119 -0.1119 0.9937 57.1407 -165.7034)">
			<stop  offset="0" style="stop-color:#F15A24"/>
			<stop  offset="1" style="stop-color:#990000"/>
		</linearGradient>
		<path fill="url(#SVGID_45_)" d="M75.079,287.544c0,0,11.998-29.847,46.161-32.233l-10.606-3.526
			C110.633,251.786,86.275,252.64,75.079,287.544z"/>
	</g>
</g>
</svg>
